<?xml version="1.0" encoding="UTF-8"?>
<svg width="20px" height="20px" viewBox="0 0 20 20" version="1.1" xmlns="http://www.w3.org/2000/svg" xmlns:xlink="http://www.w3.org/1999/xlink">
    <!-- Generator: Sketch 54.1 (76490) - https://sketchapp.com -->
    <title>slack</title>
    <desc>Created with Sketch.</desc>
    <defs>
        <path d="M10,20 C4.4771525,20 0,15.5228475 0,10 C0,4.4771525 4.4771525,0 10,0 C15.5228475,0 20,4.4771525 20,10 C20,15.5228475 15.5228475,20 10,20 Z M16.8175785,10.7884461 C16.6182435,10.1740176 15.9587151,9.83850192 15.3443038,10.0378425 L14.1663402,10.4209374 C13.905482,9.61701236 13.6273973,8.7622267 13.366539,7.95994227 C14.0826687,7.72696806 14.5445026,7.57684736 14.5445026,7.57684736 C15.1589139,7.37750675 15.4944203,6.71796004 15.2950852,6.10353158 C15.0957502,5.48910312 14.4362218,5.15358744 13.8218105,5.35292805 L12.6438469,5.73602297 C12.4108792,5.01987337 12.2607627,4.55802661 12.2607627,4.55802661 C12.0622479,3.94441848 11.4027196,3.60808247 10.7883082,3.80742308 C10.1738968,4.00676369 9.83839051,4.6663104 10.0377256,5.28073886 L10.4208098,6.45873522 L7.95988316,7.25855865 C7.72773575,6.54240905 7.57761922,6.08056229 7.57761922,6.08056229 C7.37746386,5.46613383 6.71793551,5.12979782 6.10434446,5.32995876 C5.48993311,5.52929937 5.15360646,6.18884608 5.35376183,6.80245421 L5.73684608,7.9812709 L4.52114831,8.37667079 C3.94693209,8.58421471 3.6245507,9.20356517 3.79599526,9.799126 C3.9748226,10.4192968 4.63353063,10.7974697 5.24302013,10.5997698 C5.24794199,10.5981291 5.72618207,10.4430864 6.4587179,10.2043699 L7.25851907,12.665365 L6.0428213,13.0607649 C5.46942539,13.2683089 5.14704399,13.8876593 5.31766824,14.4832201 C5.49649558,15.1033909 6.15520361,15.4823842 6.76469312,15.2838639 C6.76961497,15.2822232 7.24785505,15.1271806 7.9812112,14.888464 L8.37660008,16.1041956 C8.58413823,16.6776075 9.20347144,16.9999979 9.79901569,16.8293689 C10.4191692,16.6505366 10.7981519,15.9918102 10.5996372,15.3823037 C10.5979965,15.3773817 10.4429582,14.8999487 10.2050686,14.1665721 C11.0089713,13.9057066 11.8637332,13.6276142 12.6659952,13.3667487 L13.0613841,14.5824803 C13.2689223,15.1558922 13.8882555,15.4782825 14.4837997,15.3076535 C15.1039533,15.1288212 15.482936,14.4700948 15.2844212,13.8605884 C15.2827806,13.8556664 15.1277422,13.3782333 14.8890323,12.6448568 C15.605162,12.4118825 16.0669959,12.2617618 16.0669959,12.2617618 C16.6805869,12.0624212 17.0169136,11.4028745 16.8175785,10.7884461 Z M9.48237646,11.9434731 C9.22069792,11.139548 8.94343352,10.2847624 8.68257529,9.48247795 C9.486478,9.22161246 10.3412399,8.94352001 11.143502,8.68265452 L11.9433031,11.1436497 L9.48237646,11.9434731 Z" id="path-1"></path>
    </defs>
    <g id="Page-1" stroke="none" stroke-width="1" fill="none" fill-rule="evenodd">
        <g id="Homepage-1---Modernize-" transform="translate(-1317.000000, -21.000000)">
            <g id="slack" transform="translate(1317.000000, 21.000000)">
                <mask id="mask-2" fill="white">
                    <use xlink:href="#path-1"></use>
                </mask>
                <use id="Combined-Shape" fill="#000000" xlink:href="#path-1"></use>
            </g>
        </g>
    </g>
</svg>
