<?xml version="1.0" encoding="UTF-8"?>
<svg width="22px" height="22px" viewBox="0 0 22 22" version="1.1" xmlns="http://www.w3.org/2000/svg" xmlns:xlink="http://www.w3.org/1999/xlink">
    <!-- Generator: Sketch 54.1 (76490) - https://sketchapp.com -->
    <title>Combined Shape</title>
    <desc>Created with Sketch.</desc>
    <g id="Page-1" stroke="none" stroke-width="1" fill="none" fill-rule="evenodd">
        <g id="Artboard-Copy-4" transform="translate(-1293.000000, -22.000000)" fill="#000000">
            <path d="M1304,44 C1310.07513,44 1315,39.0751322 1315,33 C1315,26.9248678 1310.07513,22 1304,22 C1297.92487,22 1293,26.9248678 1293,33 C1293,39.0751322 1297.92487,44 1304,44 Z M1311.875,28.10625 C1311.2943,28.3921101 1310.66417,28.5639633 1310.01875,28.6125 C1310.70463,28.2192329 1311.20938,27.5731605 1311.425,26.8125 C1310.80045,27.1897827 1310.11535,27.456209 1309.4,27.6 C1308.49608,26.640816 1307.09925,26.3286158 1305.87298,26.8116918 C1304.64671,27.2947677 1303.83811,28.4757769 1303.83125,29.79375 C1303.83125,30.075 1303.8875,30.3 1303.8875,30.525 C1301.2896,30.4182963 1298.86673,29.186331 1297.25,27.15 C1296.9572,27.664369 1296.80219,28.2456361 1296.8,28.8375 C1296.78938,29.9294569 1297.3421,30.9498454 1298.2625,31.5375 C1297.75129,31.519928 1297.25093,31.3852174 1296.8,31.14375 L1296.8,31.2 C1296.79808,32.7337224 1297.88261,34.0540195 1299.3875,34.35 C1299.11061,34.4150413 1298.82801,34.4527223 1298.54375,34.4625 C1298.33591,34.4717448 1298.12777,34.4528231 1297.925,34.40625 C1298.35992,35.7230503 1299.57611,36.6239324 1300.9625,36.65625 C1299.82107,37.5495271 1298.41804,38.0435516 1296.96875,38.0625 C1296.705,38.0717945 1296.441,38.0529379 1296.18125,38.00625 C1297.66004,38.9514104 1299.37625,39.4584732 1301.13125,39.46875 C1307.09375,39.46875 1310.3,34.51875 1310.3,30.3 L1310.3,29.90625 C1310.89856,29.3748245 1311.42773,28.7700559 1311.875,28.10625 Z" id="Combined-Shape"></path>
        </g>
    </g>
</svg>
