<?xml version="1.0" encoding="UTF-8"?>
<svg width="45px" height="18px" viewBox="0 0 45 18" version="1.1" xmlns="http://www.w3.org/2000/svg" xmlns:xlink="http://www.w3.org/1999/xlink">
    <!-- Generator: Sketch 61.2 (89653) - https://sketch.com -->
    <title>ibm-logo</title>
    <desc>Created with Sketch.</desc>
    <g id="Page-1" stroke="none" stroke-width="1" fill="none" fill-rule="evenodd">
        <g id="ibm-logo" fill="#000000" fill-rule="nonzero">
            <path d="M0,17.6941176 L8.67509412,17.6941176 L8.67509412,16.5672235 L0,16.5672235 L0,17.6941176 Z M0,15.3280824 L8.67509412,15.3280824 L8.67509412,14.2011882 L0,14.2011882 L0,15.3280824 Z M2.47883529,12.9620471 L6.19681176,12.9620471 L6.19681176,11.8357059 L2.47883529,11.8357059 L2.47883529,12.9620471 Z M2.47883529,10.5965647 L6.19681176,10.5965647 L6.19681176,9.46967059 L2.47883529,9.46967059 L2.47883529,10.5965647 Z M2.47883529,8.23052941 L6.19681176,8.23052941 L6.19681176,7.10418824 L2.47883529,7.10418824 L2.47883529,8.23052941 Z M2.47828235,5.86449412 L6.19625882,5.86449412 L6.19625882,4.7376 L2.47828235,4.7376 L2.47828235,5.86449412 Z M0,3.49845882 L8.67509412,3.49845882 L8.67509412,2.37211765 L0,2.37211765 L0,3.49845882 Z M0,1.13297647 L8.67509412,1.13297647 L8.67509412,0.00608235294 L0,0.00608235294 L0,1.13297647 Z M9.91423529,16.5677765 L9.91423529,17.6941219 L19.0399765,17.6941219 C20.1626555,17.6956212 21.2489754,17.2961928 22.1032706,16.5677765 L9.91423529,16.5677765 Z M9.91423529,14.2011882 L9.91423529,15.3280824 L23.1372706,15.3280824 C23.3420725,14.9743874 23.5000611,14.5955866 23.6072706,14.2011882 L9.91423529,14.2011882 Z M12.3925176,12.9620471 L16.1104941,12.9620471 L16.1104941,11.8357059 L12.3925176,11.8357059 L12.3925176,12.9620471 Z M22.1862118,9.46967059 L12.3925176,9.46967059 L12.3925176,10.5965647 L23.0963529,10.5965647 C22.8523248,10.1767963 22.545589,9.79677961 22.1867647,9.46967059 M12.3930706,7.10418824 L12.3930706,8.22997647 L22.2276824,8.22997647 C22.5863166,7.9030426 22.8928687,7.52320888 23.1367176,7.10363529 L12.3930706,7.10363529 L12.3930706,7.10418824 Z M23.6067176,3.49845882 C23.4999893,3.10407092 23.3419739,2.72539179 23.1367176,2.37211765 L9.91423529,2.37211765 L9.91423529,3.49845882 L23.6067176,3.49845882 L23.6067176,3.49845882 Z M22.1032706,1.13297647 C21.2489754,0.404560142 20.1626555,0.00513169782 19.0399765,0.00663106449 L9.91423529,0.00663106449 L9.91423529,1.13297647 L22.1032706,1.13297647 L22.1032706,1.13297647 Z M12.3925176,5.86449412 L16.1104941,5.86449412 L16.1104941,4.7376 L12.3925176,4.7376 L12.3925176,5.86449412 Z M19.6034235,5.86449412 L23.6343647,5.86449412 C23.724892,5.49568304 23.7709295,5.11735844 23.7714941,4.7376 L19.6034235,4.7376 L19.6034235,5.86449412 Z M19.6034235,11.8357059 L19.6034235,12.9620471 L23.7714941,12.9620471 C23.7714941,12.5733294 23.7217294,12.1967765 23.6343647,11.8357059 L19.6034235,11.8357059 Z M31.7703412,0 L24.7855882,0 L24.7855882,1.12689412 L32.1618235,1.12689412 L31.7703412,0 Z M24.7861412,17.6941176 L30.9846118,17.6941176 L30.9846118,16.5672235 L24.7861412,16.5672235 L24.7861412,17.6941176 Z M24.7861412,15.3275294 L30.9846118,15.3275294 L30.9846118,14.2006353 L24.7861412,14.2006353 L24.7861412,15.3275294 Z M27.2649765,12.9603882 L30.9846118,12.9603882 L30.9846118,11.8334941 L27.2649765,11.8334941 L27.2649765,12.9603882 Z M27.2649765,10.5938 L30.9846118,10.5938 L30.9846118,9.46690588 L27.2649765,9.46690588 L27.2649765,10.5938 Z M38.4227765,17.6941176 L44.6212471,17.6941176 L44.6212471,16.5672235 L38.4227765,16.5672235 L38.4227765,17.6941176 Z M38.4227765,15.3275294 L44.6212471,15.3275294 L44.6212471,14.2006353 L38.4227765,14.2006353 L38.4227765,15.3275294 Z M38.4227765,12.9603882 L42.1418588,12.9603882 L42.1418588,11.8334941 L38.4227765,11.8334941 L38.4227765,12.9603882 Z M38.4222235,10.5938 L42.1413059,10.5938 L42.1413059,9.46690588 L38.4222235,9.46690588 L38.4222235,10.5938 Z M38.4227765,8.22721176 L42.1418588,8.22721176 L42.1418588,7.09976471 L35.1703765,7.09976471 L34.7794471,8.22665882 L38.0434588,8.22665882 L38.4227765,7.15395294 L38.4227765,8.22721176 Z M34.2359059,7.09976471 L27.2655294,7.09976471 L27.2655294,8.22721176 L30.9846118,8.22721176 L30.9846118,7.15450588 L31.3639294,8.22721176 L34.6279412,8.22721176 L34.2359059,7.09976471 Z M42.1413059,4.73317647 L35.9914941,4.73317647 L35.6005647,5.86007059 L42.1418588,5.86007059 L42.1413059,4.73317647 Z M37.6331765,0 L37.2428,1.12689412 L44.6212471,1.12689412 L44.6212471,0 L37.6331765,0 Z M34.7009294,17.6941176 L35.0990471,16.5672235 L34.3072353,16.5672235 L34.7009294,17.6941176 Z M33.8698588,15.3275294 L35.5369765,15.3275294 L35.9350941,14.2006353 L33.4717412,14.2006353 L33.8698588,15.3275294 Z M33.0343647,12.9609412 L36.3724706,12.9609412 L36.7705882,11.8334941 L32.6368,11.8334941 L33.0343647,12.9609412 Z M32.1988706,10.5938 L37.2085176,10.5938 L37.6060824,9.46690588 L31.8002,9.46690588 L32.1988706,10.5938 Z M27.2649765,5.86007059 L33.8062706,5.86007059 L33.4153412,4.73317647 L27.2649765,4.73317647 L27.2649765,5.86007059 Z M36.4211294,3.49348235 L44.6212471,3.49348235 L44.6212471,2.36658824 L36.8126118,2.36658824 L36.4211294,3.49348235 Z M32.5942235,2.36658824 L24.7861412,2.36658824 L24.7861412,3.49348235 L32.9851529,3.49348235 L32.5942235,2.36658824 Z" id="Shape"></path>
        </g>
    </g>
</svg>