<?xml version="1.0" encoding="UTF-8"?>
<svg width="79px" height="33px" viewBox="0 0 79 33" version="1.1" xmlns="http://www.w3.org/2000/svg" xmlns:xlink="http://www.w3.org/1999/xlink">
    <!-- Generator: Sketch 61.2 (89653) - https://sketch.com -->
    <title>Logo</title>
    <desc>Created with Sketch.</desc>
    <g id="Page-1" stroke="none" stroke-width="1" fill="none" fill-rule="evenodd">
        <g id="Logo" fill-rule="nonzero">
            <path d="M10.0452318,19.4612337 C9.24067525,20.6984328 8.12619504,21.3166878 6.70077789,21.3166878 C5.31545829,21.3166878 4.20865017,20.7191103 3.38020878,19.5238174 C2.55220166,18.3282489 2.13805335,16.7784071 2.13805335,14.8733273 C2.13805335,12.9227571 2.54814848,11.343967 3.36833875,10.1372326 C4.18867378,8.93063612 5.29519238,8.32699324 6.6887631,8.32699324 C8.06655537,8.32699324 9.17119214,8.88528365 10.0033972,10.000486 C10.8356023,11.1163775 11.2517772,12.6762822 11.2517772,14.6796488 C11.2517772,16.6303568 10.8494989,18.2241725 10.0452318,19.4612337 M6.71279268,6.73469388 C4.69011025,6.73469388 3.06565293,7.5014127 1.83927595,9.03402324 C0.613188489,10.5667716 0,12.5094844 0,14.8618858 C0,17.1157248 0.585395243,19.0185991 1.75604097,20.570095 C2.92654195,22.1220044 4.55881612,22.8979592 6.65300825,22.8979592 C8.77919157,22.8979592 10.4334687,22.0800982 11.616274,20.4450655 C12.7985002,18.8097571 13.3898305,16.8914437 13.3898305,14.6912281 C13.3898305,12.3996183 12.7805504,10.500466 11.5622798,8.99390904 C10.3438645,7.4880413 8.72736874,6.73469388 6.71279268,6.73469388" id="Shape" fill="#5DA7A3"></path>
            <path d="M22.9743817,21.3675472 C22.3141999,22.0708909 21.5553686,22.4231311 20.6995495,22.4231311 C19.9600553,22.4231311 19.2509264,22.1309948 18.5697457,21.5465801 C17.8882629,20.9630179 17.5133038,20.2230151 17.3622325,19.3279924 L17.3622325,15.986044 C17.6643752,15.1731491 17.9693882,14.4814568 18.5884786,13.9109668 C19.2075689,13.3404769 19.9067271,13.0551609 20.687917,13.0551609 C21.67683,13.0551609 22.4704077,13.4596901 23.0688013,14.2686065 C23.6668927,15.0775228 23.966014,16.2284489 23.966014,17.7215269 C23.966014,19.4489107 23.6351677,20.6646297 22.9743817,21.3675472 M21.1627342,11.4489796 C19.4033574,11.4489796 18.1175892,12.324536 17.2111612,14.0747962 L17.2111612,11.6982048 L15.3983051,11.6982048 L15.3983051,27.6122449 L17.3622325,27.6122449 L17.3622325,21.8249337 C18.2686605,23.2394361 19.5089562,23.9470425 21.0876517,23.9470425 C22.5589355,23.9470425 23.762823,23.3796786 24.7020335,22.2455191 C25.6407908,21.1107912 26.1101695,19.5775018 26.1101695,17.6453669 C26.1101695,15.8534744 25.6629983,14.3729003 24.7505274,13.2033604 C23.8376033,12.0336785 22.6480676,11.4489796 21.1627342,11.4489796" id="Shape" fill="#5DA7A3"></path>
            <path d="M30.2635876,16.3633367 C30.3417076,15.2589868 30.7013166,14.4083613 31.3417006,13.7704611 C31.9816561,13.132423 32.7614279,12.8040169 33.6807302,12.8040169 C34.3641016,12.8040169 34.9490732,12.9757433 35.436502,13.3291353 C35.9235023,13.6819751 36.269401,14.1257857 36.4734841,14.6270225 C36.6781385,15.1281213 36.7875351,15.673118 36.8033876,16.3633367 L30.2635876,16.3633367 Z M37.3752202,13.0306848 C36.4283545,11.9902491 35.177435,11.4489796 33.6217475,11.4489796 C32.0429239,11.4489796 30.7305938,12.002535 29.6860424,13.1314567 C28.6412054,14.2598262 28.1186441,15.7349616 28.1186441,17.5669401 C28.1186441,19.3608184 28.6210684,20.8073788 29.6269168,21.9133852 C30.6324796,23.0199438 31.948523,23.5714286 33.574904,23.5714286 C34.8082573,23.5714286 35.8802292,23.2489584 36.7915339,22.6047083 C37.7031242,21.9607342 38.315802,21.1473805 38.6301386,20.164095 L36.9099278,19.8227128 C36.2889667,21.3334635 35.2205652,22.0892529 33.7042947,22.0892529 C32.8636837,22.0892529 32.0663456,21.8280742 31.3122807,21.2206817 C30.5580729,20.6130132 30.1807547,19.400299 30.1807547,17.7437741 L38.8305085,17.7437741 C38.8069439,15.5350743 38.3218002,14.0708443 37.3752202,13.0306848 L37.3752202,13.0306848 Z" id="Shape" fill="#5DA7A3"></path>
            <path d="M48.4360639,12.131331 C47.7604439,11.6765714 46.9193566,11.4489796 45.9588422,11.4489796 C44.2930443,11.4489796 42.9504563,12.281174 41.86897,13.9451388 L41.86897,11.6970688 L40.1694915,11.6970688 L40.1694915,23.5714286 L42.0234681,23.5714286 L42.0234681,17.0943875 C42.0234681,15.8740147 42.3859205,14.8899982 43.0785352,14.143186 C43.7706864,13.396798 44.635412,13.023604 45.6550991,13.023604 C46.3946812,13.023604 47.0428005,13.2452586 47.5611415,13.6885679 C48.0796369,14.1315944 48.3578879,14.8976317 48.3578879,15.9865384 L48.3578879,23.5714286 L50.2118644,23.5714286 L50.2118644,16.7445181 C50.2118644,15.2593755 50.0814681,14.2330919 49.8304087,13.6652432 C49.5796584,13.0973946 49.1118383,12.5860905 48.4360639,12.131331 Z" id="Shape" fill="#5DA7A3"></path>
            <path d="M57.7329607,19.3222724 C57.7329607,20.2169129 57.6640173,20.8635659 57.5298341,21.2632464 C57.3952236,21.6624919 57.1314154,21.9876311 56.7394068,22.2393892 C56.347683,22.4908573 55.696282,22.6161563 54.8693887,22.6161563 C54.2880707,22.6161563 53.7445005,22.5385695 52.8898305,22.383251 L52.8898305,23.934696 C53.7445005,24.1412073 54.3788082,24.244898 55.0974432,24.244898 C56.43956,24.244898 57.5351046,23.8824881 58.3478958,23.1583934 C59.1604021,22.4338637 59.5847458,21.154915 59.5847458,19.3211123 L59.5847458,8.75510204 L57.7329607,8.75510204 L57.7329607,19.3222724 Z" id="Shape" fill="#FFFFFF"></path>
            <path d="M69.2408119,16.2258904 C68.5667578,16.9427266 67.7321552,17.301216 66.7374198,17.301216 C65.8338326,17.301216 65.0420337,16.9919422 64.3610534,16.3735373 C63.6802116,15.7547043 63.3397215,14.9141872 63.3397215,13.8512724 C63.3397215,12.8619672 63.6468275,12.0224485 64.2607626,11.3349991 C64.8741435,10.6471216 65.7104084,10.3033256 66.7690031,10.3033256 C67.8133298,10.3033256 68.6549971,10.6378491 69.2934508,11.3076095 C69.9321815,11.9772272 70.2514776,12.7780866 70.2514776,13.7093317 C70.2514776,14.6701062 69.914312,15.5090542 69.2408119,16.2258904 M70.8547463,10.7241548 C69.8882696,9.41202357 68.4980503,8.75510204 66.6842268,8.75510204 C65.2025821,8.75510204 63.983439,9.25724401 63.0274901,10.2611 C62.070987,11.2652413 61.5932203,12.4728071 61.5932203,13.8842255 C61.5932203,15.2738178 62.0479922,16.439586 62.958367,17.3816729 C63.8688803,18.323617 64.9942432,18.7948031 66.3347327,18.7948031 C68.2330553,18.7948031 69.655135,17.9007906 70.6008332,16.1130511 C70.5795006,18.1551427 70.2212795,19.7722681 69.5265854,20.9639993 C68.8313372,22.1560159 67.7958759,22.7514536 66.4195089,22.7514536 C65.0015849,22.7514536 63.9923045,22.0650027 63.3923603,20.6913876 L61.9422989,21.2366111 C62.7041768,23.2421832 64.1895616,24.244898 66.3987304,24.244898 C68.2894342,24.244898 69.7469759,23.4978191 70.7701086,22.0035188 C71.7932413,20.5090758 72.3050847,18.5545738 72.3050847,16.1400127 C72.3050847,13.8421426 71.8216386,12.0368566 70.8547463,10.7241548" id="Shape" fill="#FFFFFF"></path>
            <path d="M48.8437901,24.6447157 C49.5439394,25.9055492 50.4194098,27.0921229 51.4702013,28.1672453 C57.7680165,34.6109182 67.9787927,34.6109182 74.2766079,28.1672453 C80.574464,21.7236003 80.574464,11.2764018 74.2766079,4.83275683 C67.9787927,-1.61091894 57.7680165,-1.61091894 51.4702013,4.83275683 C49.6067016,6.73939704 48.2945983,8.99656483 47.5338983,11.3968229 L48.3702672,11.7778196 C49.0834325,9.47829956 50.3312227,7.31476122 52.1136335,5.49108892 C58.0560948,-0.588999288 67.6907212,-0.588999288 73.6331757,5.49108892 C79.5756712,11.5711436 79.5756712,21.4288557 73.6331757,27.5089146 C67.6907212,33.588993 58.0560948,33.588993 52.1136335,27.5089146 C51.1440677,26.5168987 50.3326998,25.4243267 49.6795161,24.2640073 L48.8437901,24.6447157 Z" id="Shape" fill="#5DA7A3"></path>
        </g>
    </g>
</svg>