<?xml version="1.0" encoding="UTF-8"?>
<svg width="25px" height="625px" viewBox="0 0 25 625" version="1.1" xmlns="http://www.w3.org/2000/svg" xmlns:xlink="http://www.w3.org/1999/xlink">
    <!-- Generator: Sketch 61.2 (89653) - https://sketch.com -->
    <title>Circle Overlay</title>
    <desc>Created with Sketch.</desc>
    <g id="Page-1" stroke="none" stroke-width="1" fill="none" fill-rule="evenodd">
        <g id="OpenJ9-Home-Blank" transform="translate(-1286.000000, -2511.000000)" fill-rule="nonzero">
            <rect id="Gray-BG" fill="#5DA7A3" x="0" y="1431" width="1440" height="1242"></rect>
            <g id="Participate" transform="translate(-87.000000, 2512.000000)">
                <rect id="Blue-BG" fill="#343434" x="87" y="156" width="1440" height="365"></rect>
                <g id="Group-10" transform="translate(87.000000, 0.000000)" fill="#5DA7A3">
                    <rect id="Rectangle-2" x="0" y="155" width="1440" height="365"></rect>
                </g>
                <g id="Circle-Overlays" transform="translate(78.000000, 0.000000)" opacity="0.750334821" stroke="#FFFFFF">
                    <g id="Circle-Overlay" transform="translate(743.500000, 311.500000) rotate(90.000000) translate(-743.500000, -311.500000) translate(432.000000, -432.000000)">
                        <g id="Group-12">
                            <g id="Circle-Overlay">
                                <g id="Stacked-Group-8" transform="translate(0.000000, 168.000000)" opacity="0.5">
                                    <circle id="Oval-16" cx="611.5" cy="11.5" r="11.5"></circle>
                                    <circle id="Oval-16" cx="587.5" cy="11.5" r="11.5"></circle>
                                    <circle id="Oval-16" cx="563.5" cy="11.5" r="11.5"></circle>
                                    <circle id="Oval-16" cx="515.5" cy="11.5" r="11.5"></circle>
                                    <circle id="Oval-16" cx="539.5" cy="11.5" r="11.5"></circle>
                                    <circle id="Oval-16" cx="467.5" cy="11.5" r="11.5"></circle>
                                    <circle id="Oval-16" cx="491.5" cy="11.5" r="11.5"></circle>
                                    <circle id="Oval-16" cx="419.5" cy="11.5" r="11.5"></circle>
                                    <circle id="Oval-16" cx="443.5" cy="11.5" r="11.5"></circle>
                                    <circle id="Oval-16" cx="371.5" cy="11.5" r="11.5"></circle>
                                    <circle id="Oval-16" cx="395.5" cy="11.5" r="11.5"></circle>
                                    <circle id="Oval-16" cx="323.5" cy="11.5" r="11.5"></circle>
                                    <circle id="Oval-16" cx="347.5" cy="11.5" r="11.5"></circle>
                                    <circle id="Oval-16" cx="275.5" cy="11.5" r="11.5"></circle>
                                    <circle id="Oval-16" cx="299.5" cy="11.5" r="11.5"></circle>
                                    <circle id="Oval-16" cx="227.5" cy="11.5" r="11.5"></circle>
                                    <circle id="Oval-16" cx="251.5" cy="11.5" r="11.5"></circle>
                                    <circle id="Oval-16" cx="179.5" cy="11.5" r="11.5"></circle>
                                    <circle id="Oval-16" cx="203.5" cy="11.5" r="11.5"></circle>
                                    <circle id="Oval-16" cx="131.5" cy="11.5" r="11.5"></circle>
                                    <circle id="Oval-16" cx="155.5" cy="11.5" r="11.5"></circle>
                                    <circle id="Oval-16" cx="83.5" cy="11.5" r="11.5"></circle>
                                    <circle id="Oval-16" cx="107.5" cy="11.5" r="11.5"></circle>
                                    <circle id="Oval-16" cx="35.5" cy="11.5" r="11.5"></circle>
                                    <circle id="Oval-16" cx="59.5" cy="11.5" r="11.5"></circle>
                                    <circle id="Oval-16" cx="11.5" cy="11.5" r="11.5"></circle>
                                    
                                </g>
                            </g>
                        </g>
                    </g>
                </g>
                <rect id="Rectangle-22" fill="#F5F9FC" x="734" y="520" width="793" height="2"></rect>
            </g>
        </g>
    </g>
</svg>