<?xml version="1.0" encoding="UTF-8"?>
<svg width="239px" height="77px" viewBox="0 0 239 77" version="1.1" xmlns="http://www.w3.org/2000/svg" xmlns:xlink="http://www.w3.org/1999/xlink">
    <!-- Generator: Sketch 61.2 (89653) - https://sketch.com -->
    <title>oregon-state-university-logo</title>
    <desc>Created with Sketch.</desc>
    <g id="Page-1" stroke="none" stroke-width="1" fill="none" fill-rule="evenodd">
        <g id="oregon-state-university-logo" transform="translate(-2.000000, -1.000000)" fill-rule="nonzero">
            <rect id="Rectangle" fill-opacity="0" fill="#D73F09" x="0" y="0" width="250" height="80"></rect>
            <path d="M60.6,28 C60.3,25.7 59.6,23.5 58.6,21.5 C57.9,20.1 57,18.8 55.8,17.8 C54.3,16.5 52.4,15.8 50.4,15.8 C49.5,15.8 48.6,15.9 47.7,16.2 L50.3,10.6 L50.6,9.9 L50,9.6 L44.9,6 L44.7,5.8 L40.4,5.8 C39.5,5.6 38.6,5.2 37.9,4.6 C35.5,2.7 32.6,1.7 29.5,1.7 C26.4,1.6 23.4,2.6 21,4.7 L21,4.7 L12.2,13.3 L12.2,13.3 L12,13.5 L6.9,18.5 L6.9,18.5 C6,19.4 5.3,20.4 4.8,21.6 C3.8,23.7 3.1,25.8 2.8,28.1 C1.8,33.4 2,38.8 3.3,44 C4.8,49.5 7.4,54.6 10.9,59.1 C15.8,65.3 22,70.5 29,74.5 L31.2,75.8 L31.7,76.1 L32.2,75.8 L34.4,74.5 C41.4,70.5 47.5,65.2 52.6,59 C56.1,54.5 58.7,49.4 60.2,43.9 C61.3,38.7 61.5,33.3 60.6,28 Z" id="Path" fill="#FFFFFF"></path>
            <path d="M27.4,22.2 L19.5,22.2 L18.8,34.1 C19.2,34.2 19.7,34.3 20.1,34.5 L27.4,22.2 Z" id="Path" fill="#000000"></path>
            <path d="M21.3,49.2 L21.3,49.2 L21.2,50.2 L21.6,50.4 C22.4,50.7 23.2,50.9 24.1,50.8 C25,50.8 25.9,50.7 26.7,50.3 L26.7,49.3 C25.9,49.7 25,49.9 24.1,49.9 C23.3,49.9 22.4,49.7 21.6,49.4 L21.3,49.2 Z" id="Path" fill="#000000"></path>
            <path d="M21.6,52.9 L21.3,52.7 L21.2,52.7 L21.2,53.7 L21.6,53.9 C22.4,54.2 23.2,54.4 24.1,54.3 C24.8,54.3 25.5,54.2 26.1,54 L26.1,53.1 C25.5,53.3 24.8,53.4 24.1,53.4 C23.2,53.5 22.3,53.3 21.6,52.9 Z" id="Path" fill="#000000"></path>
            <path d="M21.6,56.4 L21.3,56.2 L21.2,56.2 L21.2,57.2 L21.6,57.4 C22.4,57.7 23.2,57.8 24,57.8 C24.4,57.8 24.8,57.8 25.2,57.7 L25.2,56.8 C24.8,56.9 24.4,56.9 24,56.9 C23.2,57 22.3,56.8 21.6,56.4 Z" id="Path" fill="#000000"></path>
            <path d="M30.5,5.8 C31.2,5.9 31.8,6.2 32.4,6.5 C33,6.8 33.6,7.2 34.1,7.6 C34.9,8.3 35.8,8.9 36.7,9.4 L36.7,7.9 C36,7.5 35.4,7.1 34.7,6.7 C34.1,6.3 33.4,6 32.8,5.7 C32.1,5.4 31.4,5.2 30.7,5.1 C30,5 29.3,5 28.5,5.1 L28.4,5.1 L28.4,5.7 L28.5,5.7 C29.1,5.6 29.8,5.7 30.5,5.8 Z" id="Path" fill="#000000"></path>
            <path d="M59.7,28.2 C59.4,26 58.7,23.9 57.8,21.9 C57.2,20.6 56.3,19.4 55.2,18.5 C53.9,17.4 52.1,16.7 50.4,16.7 C48.1,16.7 45.9,17.6 44.3,19.2 L41.7,16.4 L42.1,15.5 L45.7,15.5 L45.3,16.4 L46.7,16.4 L49.5,10.3 L44.4,6.7 L40.4,6.7 C39.3,6.5 38.2,6 37.4,5.3 C35.2,3.5 32.4,2.5 29.5,2.5 C26.6,2.3 23.8,3.3 21.6,5.2 L12.5,14.1 L12.5,14.1 L7.4,19.1 C6.6,19.9 5.9,20.9 5.4,21.9 C4.5,23.9 3.8,26 3.5,28.2 C2.5,33.3 2.7,38.6 4,43.7 C5.5,49.1 8,54.1 11.5,58.5 C16.5,64.7 22.6,69.9 29.5,73.8 L31.7,75.1 L33.9,73.8 C40.8,69.8 46.9,64.6 51.9,58.5 C55.3,54.1 57.8,49.1 59.3,43.7 C60.5,38.6 60.7,33.3 59.7,28.2 Z M22.4,6.1 C23,5.5 25,3.7 29.4,3.7 C32,3.7 34.6,4.6 36.6,6.3 C37.9,7.2 39,7.9 40.4,7.9 L44,7.9 L48,10.7 L46.4,14.2 L42.8,14.2 C42.3,14.2 41.8,14 41.4,13.6 C40.9,13.1 40.6,12.5 40.5,11.8 L39.9,11.8 C39.9,12.2 39.9,12.7 40.1,13.1 C40.2,13.5 40.5,13.9 40.8,14.3 C40.9,14.5 41.1,14.6 41.3,14.7 L40.4,16.6 L42.8,19.2 L41,19.2 L37.8,16.5 L37.1,16.5 L39.4,19.2 L34.7,19.2 L32,16.5 L30.4,16.5 C30.7,15.8 30.9,15 30.9,14.2 C30.9,14.1 30.9,13.9 30.9,13.8 L30.9,13.4 L30.9,13.2 L30.9,13 L30.8,12.6 C30.7,12 30.5,11.5 30.2,11 C29.9,10.5 29.6,10 29.2,9.6 L29.1,9.5 L28.9,9.4 L28.6,9.1 C28.4,8.9 28.1,8.8 27.9,8.6 C26.9,8 26,7.7 25.1,7.6 C24.9,7.6 24.6,7.6 24.3,7.6 L24.3,8.2 C25.3,8.2 26.3,8.5 27.1,9.1 C27.3,9.2 27.5,9.4 27.7,9.5 L28,9.8 L28.1,9.9 L28.2,10 C28.5,10.4 28.8,10.8 29,11.2 C29.2,11.6 29.4,12.1 29.5,12.6 L29.5,13 L29.5,13.2 L29.5,13.8 C29.5,13.9 29.5,14 29.5,14.2 C29.4,15.2 29.1,16.1 28.5,16.8 L27.8,17.8 L31.2,17.8 L32.7,19.3 L18.7,19.3 L18.7,14.1 L14.2,14.1 L22.4,6.1 Z M16.1,24.2 C15.6,26.1 14,27.5 12.1,27.7 L11.6,27.7 C9.2,27.7 7.1,25.8 6.9,23.4 C6.9,23.3 6.9,23.2 6.9,23.1 C6.9,21.8 7.4,20.6 8.4,19.7 L12.9,15.3 L17.4,15.3 L17.4,19.7 L16.1,24.2 Z M58,43.4 C57.1,46.5 55.9,49.6 54.3,52.4 L54.3,52.4 L54,52.8 L53.8,53.1 L53.5,53.5 L53.3,54 L53.1,54.4 L52.6,55.1 L52.4,55.4 L52,55.9 L51.8,56.2 L51.4,56.7 L51.2,56.9 L50.6,57.7 L50.6,57.7 L50.1,58.4 C48,61 45.6,63.5 43,65.7 C40.9,67.5 38.8,69.1 36.5,70.6 C35.4,71.3 34.2,72.1 33,72.8 L31.5,73.7 L31.5,73.7 L30,72.8 C23.3,68.9 17.3,63.8 12.4,57.8 L12,57.3 L11.8,57 L11.4,56.4 L11.2,56 L10.7,55.3 L10.6,55.2 L10.1,54.4 L10.1,54.4 C7.9,51 6.2,47.3 5.2,43.4 C4,38.5 3.8,33.4 4.7,28.4 C4.9,26.9 5.3,25.4 5.8,24 C5.9,24.9 6.3,25.8 6.8,26.5 C6.6,27.2 6.5,27.9 6.3,28.7 C6.1,29.9 5.9,31.2 5.9,32.4 L14.1,36.2 C14.2,36 14.4,35.8 14.6,35.6 C14.7,35.5 14.9,35.3 15,35.2 L10,28.7 C10.9,28.9 11.8,29 12.7,28.8 L16.1,34.4 C16.5,34.2 16.9,34.1 17.4,34 L16.9,25.6 C17.1,25.2 17.2,24.9 17.3,24.5 L18.5,20.5 L18.5,20.4 L44.9,20.4 L45.1,20.2 C46.5,18.7 48.4,17.9 50.4,18 C51.9,18 53.3,18.5 54.4,19.5 C55.4,20.3 56.1,21.4 56.7,22.5 C57.6,24.4 58.2,26.4 58.5,28.4 C59.4,33.4 59.2,38.5 58,43.4 Z" id="Shape" fill="#000000"></path>
            <circle id="Oval" fill="#000000" cx="44.2" cy="10.4" r="1"></circle>
            <path d="M40.4,10.8 L40.4,10.8 C40.5,10.3 40.9,9.9 41.4,9.8 L41.4,9.1 L39.8,9.1 L39.8,10.8 L40.4,10.8 L40.4,10.8 Z" id="Path" fill="#000000"></path>
            <path d="M56.8,28.7 C56.1,24.6 54.4,19.7 50.4,19.7 C48.5,19.6 46.7,20.6 45.8,22.2 L31.2,22.2 L21.2,35.2 C21.3,35.3 21.4,35.4 21.6,35.5 C21.8,35.7 22,36 22.1,36.2 L29.3,32.9 L28.7,35.5 L22.7,37.4 C22.8,37.8 22.9,38.3 22.9,38.8 C22.7,38.8 22.5,38.7 22.3,38.6 C22.1,38.5 21.9,38.4 21.7,38.4 L21.4,38.3 L20.8,38 C20.3,37.8 19.8,37.6 19.3,37.6 L19,37.6 L18.6,37.6 L17.6,37.6 L17.2,37.6 L16.9,37.6 C16.4,37.7 15.9,37.8 15.4,38 L14.8,38.3 L14.5,38.4 C14.3,38.5 14.1,38.6 13.9,38.6 C13.7,38.7 13.5,38.7 13.3,38.8 C13.3,38.3 13.4,37.8 13.5,37.4 L5.8,34.9 C5.8,35.8 5.8,36.7 5.9,37.6 L5.9,37.6 C5.9,37.7 5.9,37.8 5.9,37.9 C5.9,38 5.9,38.3 5.9,38.5 L5.9,38.5 C5.9,38.6 5.9,38.8 5.9,38.9 L6.7,38.9 L7.2,39 L7.2,39 C7.7,39.1 8.3,39.3 8.7,39.6 C9.7,40.1 10.8,40.4 11.9,40.4 C13,40.4 14.1,40.2 15.1,39.6 C15.3,39.5 15.6,39.4 15.8,39.3 C16.3,39.1 16.9,39 17.5,39 L18.2,39 C18.7,39 19.3,39.1 19.8,39.3 C20.1,39.4 20.3,39.5 20.6,39.6 C21.6,40.1 22.7,40.4 23.8,40.4 C24.9,40.4 26,40.2 27,39.6 L27.5,39.4 L27.2,40.6 L28.3,40.4 L28,41.7 C27.4,41.8 26.9,42 26.4,42.3 C25.5,42.8 24.6,43 23.6,43 C22.6,43 21.7,42.8 20.8,42.3 C19.8,41.8 18.7,41.5 17.6,41.5 C16.5,41.5 15.4,41.7 14.4,42.3 C13.5,42.8 12.6,43 11.6,43 C10.6,43 9.7,42.8 8.8,42.3 C8.3,42 7.8,41.8 7.2,41.7 L7.2,41.7 L7.6,41.7 L7.5,41.7 L7.3,41.7 L7.2,41.7 L7.2,41.7 C6.9,41.7 6.7,41.6 6.4,41.6 C6.5,41.9 6.5,42.2 6.6,42.5 L7.1,42.5 L7.3,42.5 L7.4,42.5 L7.7,42.6 L7.7,42.6 L8,42.7 C8.3,42.8 8.7,43 9,43.1 C10,43.6 11.1,43.9 12.2,43.9 C13.3,43.9 14.4,43.7 15.4,43.1 C16.3,42.6 17.2,42.4 18.2,42.4 C19.2,42.4 20.1,42.6 21,43.1 C22,43.6 23.1,43.9 24.2,43.9 C25.3,43.9 26.4,43.7 27.4,43.1 C27.7,42.9 28.1,42.8 28.4,42.7 L27.8,45.3 C27.5,45.4 27.2,45.6 26.9,45.7 C26.1,46.2 25.1,46.4 24.2,46.4 C23.3,46.4 22.3,46.2 21.5,45.7 C20.5,45.2 19.4,44.9 18.3,44.9 C17.2,44.9 16.1,45.1 15.1,45.7 C14,46 13,46.2 12.1,46.2 C11.2,46.2 10.2,46 9.4,45.5 L8.8,45.2 L8.8,45.2 L8.8,45.2 L8.8,45.2 C8.4,45 7.9,44.9 7.5,44.8 C7.7,45.3 7.8,45.7 8,46.2 L8,46.2 C8.8,48.2 9.7,50.1 10.8,52 L10.9,52.3 L11.1,52.7 L11.3,53 L11.5,53.4 L11.7,53.7 L11.9,54.1 L12.1,54.4 L12.3,54.7 L12.6,55.1 L12.8,55.4 L13.1,55.8 L13.3,56 L13.8,56.7 C18.6,62.5 24.4,67.5 31,71.2 L31.6,71.6 L32.2,71.2 C38.8,67.4 44.6,62.5 49.3,56.6 L49.3,56.6 C49.6,56.3 49.8,55.9 50.1,55.6 L50.2,55.5 C50.4,55.2 50.7,54.8 50.9,54.5 L51,54.4 C51.5,53.7 52,52.9 52.4,52.2 C53.6,50.2 54.5,48.2 55.3,46.1 L55.3,46.1 C55.5,45.7 55.6,45.3 55.7,44.9 C55.2,45 54.8,45.1 54.4,45.3 L54.4,45.3 L54.3,45.3 L54.3,45.3 L54.3,45.3 L53.7,45.6 C52,46.5 50,46.5 48.3,45.6 C46.3,44.6 43.9,44.6 41.8,45.6 C40.1,46.5 38.1,46.5 36.4,45.6 C36.1,45.5 35.8,45.3 35.5,45.2 L34.5,40.4 L35.7,40.6 L35.7,40.6 L35,37.4 L38.8,33.7 L41.3,35.5 L45.2,31.6 L49,35.6 L51.5,33.8 L56,38.3 L57.1,39.4 C57.1,39 57.2,38.6 57.2,38.2 L57.2,38.2 C57.2,38.1 57.2,38.1 57.2,38 C57.2,37.9 57.2,37.8 57.2,37.8 L57.2,37.8 C57.4,34.7 57.3,31.7 56.8,28.7 Z M49.5,29.3 L49.6,29.1 L51,29.1 L51.4,27.7 L51.6,27.7 L52,29 L53.4,29 L53.5,29.2 L52.3,30 L52.7,31.4 L52.5,31.5 L51.3,30.7 L50.1,31.5 L49.9,31.4 L50.3,30 L49.5,29.3 Z M46.5,29.1 L46.3,29.2 L45.1,28.4 L44,29.2 L43.8,29.1 L44.2,27.7 L43,26.9 L43.1,26.7 L44.5,26.7 L45,25.3 L45.2,25.3 L45.6,26.7 L47,26.7 L47.1,26.9 L46,27.8 L46.5,29.1 Z M40,31.5 L39.8,31.6 L38.6,30.8 L37.4,31.6 L37.2,31.5 L37.6,30.1 L36.4,29.3 L36.5,29.1 L37.9,29.1 L38.3,27.7 L38.5,27.7 L38.9,29 L40.3,29 L40.4,29.2 L39.2,30 L40,31.5 Z M34.8,47.5 L33.4,47.2 L33.4,47.2 L35.3,56.4 L35.3,56.4 L31.6,54.9 L27.9,56.4 L27.9,56.4 L29.8,47.2 L28.4,47.5 L28.4,47.5 L30.2,38.7 L30.2,38.7 L29.1,38.9 L31.4,26.7 L31.6,26.7 L34,38.9 L32.9,38.7 L32.9,38.7 L34.8,47.5 Z M32.3,57.6 L32.6,66.3 L30.5,66.3 L30.8,57.6 L30.8,56.2 L31.5,55.9 L32.2,56.2 L32.3,57.6 Z M29.8,60.1 L29.8,60.7 C29.1,60.7 28.4,60.9 27.8,61.2 C26.7,61.8 25.4,62.1 24.1,62.1 C22.9,62.1 21.6,61.9 20.6,61.3 L20.5,61.2 L20,61 L19.9,61 C19.7,60.9 19.6,60.9 19.4,60.8 L19.9,60.4 L19.9,60.4 L19.9,60.4 L20,60.3 C20.3,60.4 20.5,60.5 20.8,60.6 L21.1,60.8 C22,61.2 23,61.4 23.9,61.4 C25,61.4 26.1,61.2 27.1,60.6 C27.9,60.2 28.8,59.9 29.7,59.9 L29.8,60.1 Z M42,60.7 L42.3,60.5 C42.5,60.4 42.8,60.3 43.1,60.2 L43.8,60.8 C43.6,60.9 43.4,60.9 43.3,61 L43.3,61 L43,61.2 L42.9,61.3 C41.8,61.9 40.6,62.1 39.4,62.1 C38.1,62.1 36.8,61.8 35.7,61.2 C35.1,60.9 34.4,60.7 33.7,60.7 L33.7,60.1 L33.7,59.9 C34.6,59.9 35.5,60.1 36.3,60.6 C37.3,61.1 38.4,61.4 39.5,61.4 C40.2,61.3 41.1,61.1 42,60.7 Z M27.3,46.6 L27.3,46.6 L26.8,49 L26.8,49 L28.3,48.7 L26.2,58.5 L30.1,56.6 L30,57.9 L29.9,59 C28.8,59 27.8,59.2 26.9,59.8 C26,60.2 25,60.4 24,60.4 C23.1,60.4 22.2,60.2 21.4,59.8 L21.2,59.7 C20.9,59.6 20.6,59.4 20.3,59.3 L20.3,47.3 L20.3,47.3 L19.5,48 L19.5,59.6 L18.7,60.3 L18.7,60.3 L18.7,47.5 L20.2,46.3 L20.3,46.3 L20.6,46.4 L20.7,46.5 C20.9,46.6 21.2,46.7 21.5,46.8 L21.5,46.8 C22.3,47.1 23.1,47.2 24,47.2 C25.2,47.4 26.3,47.1 27.3,46.6 Z M35.9,46.6 C36.9,47.1 38,47.4 39.1,47.4 C39.9,47.4 40.8,47.3 41.6,47 L41.6,47 C41.9,46.9 42.1,46.8 42.4,46.7 L42.4,46.7 L42.8,46.5 L42.9,46.5 L44.4,47.7 L44.4,60.4 L44.4,60.4 L43.6,59.7 L43.6,48 L42.7,47.3 L42.7,59.4 C42.4,59.5 42.1,59.6 41.8,59.8 L41.6,59.9 C40.8,60.3 39.9,60.5 39,60.5 C38,60.5 37.1,60.3 36.2,59.8 C35.3,59.3 34.2,59 33.2,59 L33.1,57.9 L33,56.6 L36.9,58.5 L36.6,57.2 L34.8,48.7 L36.3,49 L35.9,46.6 L35.9,46.6 Z" id="Shape" fill="#000000"></path>
            <path d="M41.6,50.3 L42,50.1 L42,49.1 L41.9,49.1 L41.6,49.3 C40.8,49.7 40,49.8 39.1,49.8 C38.2,49.8 37.3,49.6 36.5,49.2 L36.5,50.2 C38.1,50.8 39.9,50.9 41.6,50.3 L41.6,50.3 Z" id="Path" fill="#000000"></path>
            <path d="M41.6,52.9 C40.8,53.3 40,53.4 39.1,53.4 C38.4,53.4 37.7,53.3 37.1,53.1 L37.1,54 C37.7,54.2 38.4,54.3 39.1,54.3 C39.9,54.3 40.8,54.2 41.6,53.9 L42,53.7 L42,52.7 L41.9,52.7 L41.6,52.9 Z" id="Path" fill="#000000"></path>
            <path d="M41.6,56.4 C40.8,56.8 40,56.9 39.1,56.9 C38.7,56.9 38.3,56.9 37.9,56.8 L37.9,57.7 C38.3,57.8 38.7,57.8 39.1,57.8 C39.9,57.8 40.8,57.7 41.6,57.4 L42,57.2 L42,56.2 L41.9,56.2 L41.6,56.4 Z" id="Path" fill="#000000"></path>
            <polygon id="Path" fill="#000000" points="10.4 24.2 10.9 24.6 16 17.6 16 16.7 15.2 16.7"></polygon>
            <polygon id="Path" fill="#000000" points="39.3 41.8 39.3 38.8 38.1 38.8 38.1 39.6 38.5 39.6 38.5 41.8"></polygon>
            <path d="M41.8,41 C42,41.6 42.6,42 43.2,41.9 C43.6,41.8 44,41.5 44.1,41 C44.1,40.7 43.9,40.4 43.6,40.2 C43.8,40.1 44,39.8 44,39.5 C43.9,38.9 43.4,38.5 42.8,38.6 C42.4,38.7 42,39 41.9,39.5 C41.9,39.8 42.1,40 42.3,40.2 C42,40.4 41.7,40.7 41.8,41 Z M42.9,39.9 C42.7,39.9 42.6,39.8 42.6,39.6 C42.6,39.4 42.7,39.3 42.9,39.3 C43.1,39.3 43.2,39.4 43.2,39.6 C43.2,39.6 43.2,39.6 43.2,39.6 C43.2,39.7 43.1,39.9 42.9,39.9 C42.9,39.9 42.9,39.9 42.9,39.9 L42.9,39.9 Z M42.9,41.2 C42.7,41.2 42.6,41.1 42.6,40.9 C42.6,40.7 42.7,40.6 42.9,40.6 C43.1,40.6 43.2,40.7 43.2,40.9 C43.2,41.1 43.1,41.2 42.9,41.2 C42.9,41.3 42.9,41.3 42.9,41.2 L42.9,41.2 Z" id="Shape" fill="#000000"></path>
            <path d="M47.3,38.8 L46.7,39.6 C46.4,39.9 46.2,40.4 46.2,40.8 C46.2,41.1 46.4,41.4 46.6,41.6 C46.9,41.8 47.2,41.9 47.5,41.9 C48.1,42 48.7,41.5 48.8,40.8 C48.8,40.8 48.8,40.7 48.8,40.7 C48.8,40.1 48.4,39.7 47.9,39.6 C47.9,39.6 47.9,39.6 47.8,39.6 C47.7,39.6 47.6,39.6 47.5,39.6 L48.3,38.6 L47.3,38.8 Z M47.4,40.4 C47.6,40.4 47.8,40.7 47.8,40.9 C47.8,41.1 47.6,41.2 47.4,41.3 C47.2,41.3 46.9,41.2 46.9,40.9 C46.9,40.7 47,40.4 47.3,40.4 C47.3,40.4 47.4,40.4 47.4,40.4 Z" id="Shape" fill="#000000"></path>
            <path d="M50.7,41 C50.8,41.6 51.5,42 52.1,41.9 C52.5,41.8 52.9,41.5 53,41 C53,40.7 52.8,40.4 52.5,40.2 C52.7,40.1 52.9,39.8 52.9,39.5 C52.8,38.9 52.3,38.5 51.7,38.6 C51.3,38.7 50.9,39 50.8,39.5 C50.8,39.8 51,40 51.2,40.2 C50.9,40.3 50.7,40.7 50.7,41 Z M51.8,39.9 C51.6,39.9 51.5,39.8 51.5,39.6 C51.5,39.4 51.6,39.3 51.8,39.3 C52,39.3 52.1,39.4 52.1,39.6 C52.1,39.6 52.1,39.6 52.1,39.6 C52.1,39.7 52,39.9 51.8,39.9 C51.9,39.9 51.9,39.9 51.8,39.9 L51.8,39.9 Z M51.8,41.2 C51.6,41.2 51.5,41.1 51.5,40.9 C51.5,40.7 51.6,40.6 51.8,40.6 C52,40.6 52.1,40.7 52.1,40.9 C52.2,41.1 52.1,41.2 51.8,41.2 C51.9,41.3 51.9,41.3 51.8,41.2 L51.8,41.2 Z" id="Shape" fill="#000000"></path>
            <path d="M67.3,30 C67.3,23.1 71,18.9 77.6,18.9 C84.2,18.9 87.8,23.1 87.8,30 C87.8,36.9 84.1,41.1 77.5,41.1 C70.9,41.1 67.3,36.8 67.3,30 Z M82.4,30 C82.4,23.2 80.9,20.6 77.6,20.6 C74.3,20.6 72.8,23.2 72.8,30 C72.8,36.8 74.3,39.3 77.6,39.3 C80.9,39.3 82.4,36.7 82.4,30 Z" id="Shape" fill="#000000"></path>
            <path d="M98.2,39.6 L97.7,40.7 L88.8,40.7 L88.8,39.7 L90.3,39 L90.3,29 L88.8,26.6 L88.8,26.2 L94.3,24.4 L95,24.4 L94.9,28.1 L95,28.1 C95.7,26.2 97.2,24.4 99.6,24.4 C101.1,24.2 102.5,25.3 102.7,26.9 C102.7,27 102.7,27.2 102.7,27.3 C102.8,28.7 101.8,29.9 100.4,30 C100.3,30 100.3,30 100.2,30 C98.9,30.1 97.8,29.1 97.7,27.8 C97.7,27.7 97.7,27.6 97.7,27.5 C96.6,28 95.7,28.8 95,29.8 L95,38.9 L98.2,39.6 Z" id="Path" fill="#000000"></path>
            <path d="M111.7,38 C113.1,38 114.6,37.5 115.6,36.6 L116.3,37.4 C115.1,40 112.9,41.1 109.8,41.1 C105.6,41.1 102.4,38.4 102.4,33 C102.4,27.6 106.1,24.5 110.6,24.5 C114.2,24.5 116.7,26.6 116.7,30.4 C116.7,31.1 116.6,31.8 116.5,32.5 L107,32.5 C107.1,35.7 108.6,38 111.7,38 Z M107.1,30.7 L112.3,30.7 C112.4,30.3 112.4,29.8 112.4,29.3 C112.4,27.6 111.9,26.1 110.2,26.1 C108.5,26.1 107.4,27.6 107.1,30.7 L107.1,30.7 Z" id="Shape" fill="#000000"></path>
            <path d="M128.2,37.5 C131.7,37.5 133.9,39.2 133.9,42.7 C133.9,47.2 129.5,48.8 124.7,48.8 C120.2,48.8 117,47.8 117,45 C117,42.9 118.6,42 121.1,41.6 L121.1,41.5 C119,41.3 117.8,40.1 117.8,38.2 C117.8,36.3 119.2,35.2 121.2,34.8 C119.1,34.3 117.7,32.4 117.8,30.2 C117.8,27 120.2,24.5 124.8,24.5 C126.8,24.5 128.8,24.9 130.6,25.7 C130.4,25.4 130.4,25.1 130.4,24.8 C130.4,23.8 131.2,22.9 132.2,22.9 C132.3,22.9 132.3,22.9 132.4,22.9 C133.5,22.9 134.4,23.7 134.4,24.8 C134.4,24.9 134.4,24.9 134.4,25 C134.5,26.1 133.7,27.1 132.6,27.2 C132.5,27.2 132.3,27.2 132.2,27.2 C131.2,27.1 130.2,26.9 129.3,26.4 L129.3,26.8 C130.7,27.4 131.5,28.8 131.5,30.3 C131.5,33.8 128,35.4 124.8,35.4 C124,35.4 123.3,35.3 122.6,35.1 C121.8,35.4 121.3,35.8 121.3,36.6 C121.3,37.4 121.7,37.7 122.6,37.7 L128.2,37.5 Z M120.9,44.3 C120.9,46.2 122.3,47.1 124.8,47.1 C127.7,47.1 129.9,46.3 129.9,44 C129.9,42.6 129.2,41.8 127,41.8 L122.4,41.8 C121.5,42.3 120.9,43.3 120.9,44.3 L120.9,44.3 Z M124.7,26 C122.8,26 122.5,27.4 122.5,29.8 C122.5,32.2 122.8,33.6 124.7,33.6 C126.6,33.6 126.9,32.2 126.9,29.8 C126.9,27.4 126.6,26 124.7,26 Z" id="Shape" fill="#000000"></path>
            <path d="M141.2,41.1 C136.3,41.1 133,38.3 133,32.8 C133,27.3 136.2,24.5 141.2,24.5 C146.2,24.5 149.4,27.3 149.4,32.8 C149.4,38.3 146.2,41.1 141.2,41.1 Z M141.2,39.4 C143.6,39.4 144.3,37 144.3,32.7 C144.3,28.4 143.6,26.1 141.2,26.1 C138.8,26.1 138.1,28.5 138.1,32.7 C138.1,36.9 138.8,39.4 141.2,39.4 Z" id="Shape" fill="#000000"></path>
            <path d="M168.6,39.6 L168.1,40.7 L160.1,40.7 L160.1,39.7 L161.6,39 L161.6,31 C161.6,28.6 160.4,27.8 159,27.8 C157.9,27.8 156.9,28.3 156.1,29 L156.1,38.9 L158.3,39.6 L157.8,40.7 L149.8,40.7 L149.8,39.7 L151.3,39 L151.3,29 L149.8,26.6 L149.8,26.2 L155.3,24.4 L156.1,24.4 L156,27.6 L156.1,27.6 C157.2,25.6 159.4,24.4 161.7,24.4 C164.4,24.4 166.4,26.3 166.4,30 L166.4,38.9 L168.6,39.6 Z" id="Path" fill="#000000"></path>
            <path d="M183.3,36.3 C183.3,34.3 182.3,33.4 179.9,32.4 L177.3,31.3 C174.6,30.4 172.8,27.8 173,25 C173,20.6 176.4,18.8 179.9,18.8 C181.5,18.8 183,19.1 184.5,19.6 L186.3,18.8 L186.6,24.9 L185.6,25.1 L183.8,22.8 C183,21.3 181.4,20.4 179.7,20.5 C178.2,20.4 176.9,21.5 176.8,23 C176.8,23.1 176.8,23.2 176.8,23.3 C176.8,25 177.6,26 179.8,26.8 L182.5,27.9 C185.9,29.3 187.4,31.2 187.4,34.6 C187.4,39 184.1,41.1 180.2,41.1 C178.5,41.1 176.7,40.7 175.2,39.9 L173.2,41.1 L172.6,34.2 L173.7,34 L175.5,36.6 C176.7,38.5 178.1,39.4 180.1,39.4 C181.6,39.5 183,38.4 183.2,36.9 C183.3,36.7 183.3,36.5 183.3,36.3 Z" id="Path" fill="#000000"></path>
            <path d="M187.8,25.5 L193.6,20.5 L194.7,20.5 L194.7,24.8 L199.5,24.8 L199.2,26.7 L194.7,26.7 L194.7,35.3 C194.7,37.4 195.5,38.2 197,38.2 C198,38.2 198.9,37.9 199.7,37.4 L200.1,38.3 C198.9,40.1 196.9,41.1 194.8,41 C191.9,41 190,39.6 190,35.8 L190,26.6 L187.8,26.6 L187.8,25.5 Z" id="Path" fill="#000000"></path>
            <path d="M213.9,37.2 C213.9,38.8 214.5,39.2 216.2,39 L216.3,39.7 C215.3,40.6 213.9,41.1 212.5,41 C210.9,41 209.6,40.3 209.3,38.7 L209.2,38.7 C208.4,40.3 206.8,41.1 204.8,41.1 C202.4,41.1 200.3,39.8 200.3,36.7 C200.3,33.5 202.9,31.9 206.9,31.9 C207.6,31.9 208.4,32 209.1,32.2 L209.1,30.8 C209.1,28.7 207.7,27.6 205.6,27.6 C204.1,27.6 202.6,28 201.2,28.7 L200.8,27.6 C202.5,25.4 205.1,24.2 207.9,24.4 C210.9,24.4 213.9,25.8 213.9,30.2 L213.9,37.2 Z M208.3,33.6 C206.1,33.6 204.9,34.1 204.9,36.1 C204.8,37.2 205.5,38.2 206.6,38.4 C206.7,38.4 206.8,38.4 207,38.4 C207.8,38.4 208.5,38.2 209.1,37.6 L209.1,33.6 L208.3,33.6 Z" id="Shape" fill="#000000"></path>
            <path d="M214.6,25.5 L220.4,20.5 L221.5,20.5 L221.5,24.8 L226.3,24.8 L226,26.7 L221.5,26.7 L221.5,35.3 C221.5,37.4 222.3,38.2 223.8,38.2 C224.8,38.2 225.7,37.9 226.5,37.4 L226.9,38.3 C225.7,40.1 223.7,41.1 221.6,41 C218.7,41 216.8,39.6 216.8,35.8 L216.8,26.6 L214.6,26.6 L214.6,25.5 Z" id="Path" fill="#000000"></path>
            <path d="M235.9,38 C237.3,38 238.8,37.5 239.8,36.6 L240.5,37.4 C239.3,40 237.1,41.1 234,41.1 C229.8,41.1 226.6,38.4 226.6,33 C226.6,27.6 230.3,24.5 234.7,24.5 C238.3,24.5 240.8,26.6 240.8,30.4 C240.8,31.1 240.7,31.8 240.6,32.5 L231.2,32.5 C231.3,35.7 232.8,38 235.9,38 Z M231.3,30.7 L236.4,30.7 C236.5,30.3 236.5,29.8 236.5,29.3 C236.5,27.6 236,26.1 234.3,26.1 C232.6,26.1 231.6,27.6 231.3,30.7 L231.3,30.7 Z" id="Shape" fill="#000000"></path>
            <path d="M85.9,62.3 C85.9,67.6 82.4,70.3 77.7,70.3 C72.8,70.3 69.4,68.3 69.4,62.7 L69.4,50.5 L66.7,49.7 L67,48.5 L75.2,48.5 L75.5,49.7 L72.8,50.5 L72.8,62.2 C72.8,66.4 74.6,68.3 78.1,68.3 C81.6,68.3 83.8,66.4 83.8,61.9 L83.8,50.5 L81,49.7 L81.3,48.5 L88.3,48.5 L88.6,49.7 L85.9,50.5 L85.9,62.3 Z" id="Path" fill="#000000"></path>
            <path d="M105,68.9 L104.6,70 L97.6,70 L97.6,69 L99.3,68.4 L99.3,59.4 C99.3,57.1 97.8,56.6 96.6,56.6 C95.2,56.6 93.9,57.1 92.8,58 L92.8,68.2 L95.4,68.9 L94.9,70 L87.9,70 L87.9,69 L89.6,68.4 L89.6,57.8 L87.8,55.8 L87.8,55.4 L92.2,53.7 L92.8,53.7 L92.7,56.8 L92.9,56.8 C94,54.9 96,53.7 98.2,53.7 C100.3,53.7 102.5,55 102.5,58.7 L102.5,68.2 L105,68.9 Z" id="Path" fill="#000000"></path>
            <path d="M112.9,68.9 L112.4,70 L105.4,70 L105.4,69 L107.1,68.4 L107.1,57.8 L105.3,55.8 L105.3,55.4 L109.7,53.7 L110.3,53.7 L110.3,68.3 L112.9,68.9 Z M108.7,46.6 C109.9,46.6 111,47.6 111,48.9 C111,50.1 110,51.2 108.7,51.2 C107.5,51.2 106.4,50.2 106.4,48.9 C106.4,47.7 107.4,46.7 108.7,46.6 C108.7,46.6 108.7,46.6 108.7,46.6 Z" id="Shape" fill="#000000"></path>
            <path d="M124,55.9 L121.6,55.1 L121.8,54 L127.7,54 L127.9,55.1 L126.2,55.8 L120.7,70 L118.9,70 L113.1,56 L111.5,55 L111.8,54 L118.5,54 L118.8,55.1 L116.5,55.7 L119.1,62.1 C119.7,63.5 120.1,65 120.4,66.5 L120.6,66.5 C120.9,65 121.4,63.5 121.9,62 L124,55.9 Z" id="Path" fill="#000000"></path>
            <path d="M134.8,68 C136.4,68 138,67.5 139.3,66.5 L139.8,67.3 C138.5,69.3 136.2,70.5 133.8,70.3 C129.9,70.3 126.8,67.6 126.8,62.1 C126.8,56.6 130.2,53.6 134.3,53.6 C137.6,53.6 140,55.6 140,59.3 C140,59.9 139.9,60.6 139.8,61.2 L129.9,61.2 C129.9,65.5 131.8,68 134.8,68 Z M130,59.8 L136.7,59.8 C136.7,59.5 136.7,59.1 136.7,58.8 C136.7,56.5 135.8,55.3 133.9,55.3 C132,55.3 130.5,56.7 130,59.8 Z" id="Shape" fill="#000000"></path>
            <path d="M148.8,68.9 L148.3,70 L140.6,70 L140.6,69 L142.3,68.4 L142.3,57.8 L140.5,55.8 L140.5,55.4 L144.9,53.7 L145.5,53.7 L145.4,57.5 L145.5,57.5 C146.4,55.5 148.1,53.7 150.1,53.7 C151.8,53.7 152.8,54.7 152.8,56.1 C152.9,57.2 152.1,58.2 150.9,58.3 C150.8,58.3 150.7,58.3 150.7,58.3 C149.6,58.4 148.7,57.5 148.6,56.4 C148.6,56.3 148.6,56.2 148.6,56.1 C147.3,56.8 146.2,57.8 145.5,59.1 L145.5,68.4 L148.8,68.9 Z" id="Path" fill="#000000"></path>
            <path d="M153.8,64.8 C155.3,68.1 156.8,68.9 158.7,68.9 C160.3,68.9 161.4,68.3 161.4,66.6 C161.4,65.2 160.6,64.4 158.8,63.8 L156.7,63.1 C154.5,62.3 153.1,61 153.1,58.3 C153.1,55.2 155.4,53.7 158.4,53.7 C159.4,53.7 160.4,54 161.3,54.4 L163.1,53.8 L163.4,58.5 L162.6,58.8 C161,56.1 159.7,55.3 158.2,55.3 C157,55.1 155.9,56 155.7,57.2 C155.7,57.3 155.7,57.4 155.7,57.5 C155.7,58.8 156.4,59.7 158.1,60.3 L160.2,61 C162.6,61.8 164.1,63.1 164.1,65.9 C164.1,69.1 161.7,70.5 158.4,70.5 C157.1,70.5 155.9,70.2 154.8,69.7 L153.2,70.5 L152.9,65.2 L153.8,64.8 Z" id="Path" fill="#000000"></path>
            <path d="M172.5,68.9 L172,70 L165,70 L165,69 L166.7,68.4 L166.7,57.8 L164.9,55.8 L164.9,55.4 L169.3,53.7 L169.9,53.7 L169.9,68.3 L172.5,68.9 Z M168.3,46.6 C169.5,46.6 170.6,47.6 170.5,48.9 C170.5,50.1 169.5,51.2 168.2,51.1 C167,51.1 166,50.1 166,48.9 C166,47.7 167,46.7 168.3,46.6 C168.2,46.6 168.2,46.6 168.3,46.6 Z" id="Shape" fill="#000000"></path>
            <path d="M171.4,54.8 L176,49.8 L176.7,49.8 L176.7,54.1 L182,54.1 L181.7,55.8 L176.6,55.8 L176.6,65.3 C176.6,67.3 177.5,68.2 179,68.2 C180,68.2 181.1,67.9 182,67.4 L182.4,68.3 C181.1,69.7 179.3,70.4 177.4,70.3 C175,70.3 173.4,69 173.4,65.8 L173.4,55.8 L171.3,55.8 L171.4,54.8 Z" id="Path" fill="#000000"></path>
            <path d="M182,56 L180.4,55 L180.7,54 L187.5,54 L187.8,55.1 L185.5,55.7 L188.1,62.6 C188.7,64.1 189.1,65.7 189.3,67.2 L189.4,67.2 C189.4,67.2 190,64.9 190.8,62.5 L193,55.8 L190.6,55 L190.8,53.9 L196.6,53.9 L196.8,55 L195.1,55.7 L190,69.7 C187.7,75.9 185.8,77.9 182.8,77.9 C180.9,77.9 179.9,76.8 179.9,75.4 C179.8,74.3 180.7,73.3 181.8,73.3 C181.9,73.3 181.9,73.3 182,73.3 C183,73.3 183.8,74 183.9,75 C183.9,75.1 183.9,75.1 183.9,75.2 C183.9,75.6 183.8,76.1 183.5,76.4 C185,76.4 186.9,73.7 187.9,70.6 L182,56 Z" id="Path" fill="#000000"></path>
        </g>
    </g>
</svg>