<?xml version="1.0" encoding="UTF-8"?>
<svg width="399px" height="160px" viewBox="0 0 399 160" version="1.1" xmlns="http://www.w3.org/2000/svg" xmlns:xlink="http://www.w3.org/1999/xlink">
    <!-- Generator: Sketch 61.2 (89653) - https://sketch.com -->
    <title>university-of-new-brunswick-unb-logo-vector</title>
    <desc>Created with Sketch.</desc>
    <defs>
        <polygon id="path-1" points="0 190 425 190 425 0 0 0"></polygon>
    </defs>
    <g id="Page-1" stroke="none" stroke-width="1" fill="none" fill-rule="evenodd">
        <g id="university-of-new-brunswick-unb-logo-vector" transform="translate(-13.000000, -15.000000)">
            <g id="g10" transform="translate(212.500000, 95.000000) scale(-1, 1) rotate(-180.000000) translate(-212.500000, -95.000000) ">
                <g id="g12">
                    <g id="g14-Clipped">
                        <mask id="mask-2" fill="white">
                            <use xlink:href="#path-1"></use>
                        </mask>
                        <g id="path16"></g>
                        <g id="g14" mask="url(#mask-2)">
                            <g transform="translate(12.733129, 14.513889)">
                                <g id="g20" stroke-width="1" fill="none" fill-rule="evenodd" transform="translate(319.638643, 34.634882)">
                                    <path d="M45.6288344,18.7916667 L19.791181,18.7916667 L19.791181,44.2384722 L45.6288344,44.2384722 C55.0740031,44.2384722 59.5208589,40.0202083 59.5208589,31.5823611 C59.5208589,23.854375 55.0740031,18.7916667 45.6288344,18.7916667 M19.791181,80.3675 L44.5154908,80.3675 C52.9907209,80.3675 56.463727,77.1322222 56.463727,70.9479861 C56.463727,65.4670139 53.546089,61.6696528 45.4893405,61.6696528 L19.791181,61.6696528 L19.791181,80.3675 Z M65.9088957,53.375625 C72.2956288,57.3115278 76.1871166,64.0591667 76.1871166,72.4970139 C76.1871166,89.3674306 64.2414877,98.5019444 45.3498466,98.5019444 L0.762653374,98.5019444 L0.762653374,0.0951388889 L44.9339724,0.0951388889 C65.7680982,0.0951388889 79.5206288,11.1995833 79.5206288,31.8686806 C79.5206288,42.6920833 73.6853528,49.860625 65.9088957,53.375625" id="path22" fill="#000000" fill-rule="nonzero"></path>
                                </g>
                                <g id="g24" stroke-width="1" fill="none" fill-rule="evenodd" transform="translate(228.375238, 34.729493)">
                                    <path d="M79.5245399,0 L79.5245399,98.4094444 L60.3565184,98.4094444 L60.3565184,56.7954861 C60.3565184,51.3145139 60.6328988,38.9420833 60.6328988,35.2859028 C59.3852761,37.8165972 56.1912577,42.7394444 53.8263804,46.3929861 L19.3792178,98.4094444 L0.766564417,98.4094444 L0.766564417,0 L19.9345859,0 L19.9345859,43.2975694 C19.9345859,48.7825 19.6555982,61.15625 19.6555982,64.8084722 C20.9084356,62.2804167 24.102454,57.3588889 26.4647239,53.7053472 L62.1634202,0 L79.5245399,0 Z" id="path26" fill="#000000" fill-rule="nonzero"></path>
                                </g>
                                <g id="g28" stroke-width="1" fill="none" fill-rule="evenodd" transform="translate(137.812170, 32.989403)">
                                    <path d="M79.5245399,45.1805556 L79.5245399,100.147292 L60.0775307,100.147292 L60.0775307,44.8981944 C60.0775307,29.1545833 52.4392638,19.4540278 40.0738497,19.4540278 C27.714954,19.4540278 20.2135736,29.4329861 20.2135736,45.1805556 L20.2135736,100.147292 L0.769171779,100.147292 L0.769171779,44.8981944 C0.769171779,16.2213889 16.6010736,0.195416667 40.0738497,0.195416667 C64.8007669,0.195416667 79.5245399,16.6422917 79.5245399,45.1805556" id="path30" fill="#000000" fill-rule="nonzero"></path>
                                </g>
                                <g id="g32" stroke-width="1" fill="none" fill-rule="evenodd" transform="translate(384.205215, 1.637694)">
                                    <path d="M13.3404908,0 L7.37484663,10.7732639 L12.264954,16.9047222 L9.42814417,16.9047222 L4.48719325,10.6505556 C3.93703988,9.94993056 2.84064417,8.54868056 2.55644172,8.11458333 C2.57730061,8.64763889 2.60337423,10.4816667 2.60337423,11.1097222 L2.60337423,16.9047222 L0.16809816,16.9047222 L0.16809816,0 L2.60337423,0 L2.60337423,4.87666667 L5.70222393,8.67138889 L10.4997699,0 L13.3404908,0 Z" id="path34" fill="#000000" fill-rule="nonzero"></path>
                                </g>
                                <g id="g36" stroke-width="1" fill="none" fill-rule="evenodd" transform="translate(367.494164, 0.648771)">
                                    <path d="M13.0368098,3.95833333 L10.9626534,5.35958333 C10.1022239,3.98340278 9.02929448,3.25770833 7.28757669,3.25770833 C4.37254601,3.25770833 2.80161043,5.64854167 2.80161043,9.440625 C2.80161043,13.2340278 4.37254601,15.6248611 7.28757669,15.6248611 C9.00452454,15.6248611 9.88711656,14.9730556 10.7462423,13.5955556 L12.9651074,14.9968056 C11.8217791,17.0472222 10.0057515,18.1595139 7.28757669,18.1595139 C2.9684816,18.1595139 0.222929448,14.5600694 0.222929448,9.440625 C0.222929448,4.3225 2.9684816,0.723055556 7.28757669,0.723055556 C9.81541411,0.723055556 11.8452454,1.88416667 13.0368098,3.95833333" id="path38" fill="#000000" fill-rule="nonzero"></path>
                                </g>
                                <polygon id="path40" fill="#000000" fill-rule="nonzero" points="363.803834 18.5434722 361.299463 18.5434722 361.299463 1.63875 363.803834 1.63875"></polygon>
                                <g id="g42" stroke-width="1" fill="none" fill-rule="evenodd" transform="translate(339.325660, 1.390299)">
                                    <path d="M18.2515337,17.1527778 L15.8175613,17.1527778 L13.7890337,6.23833333 C13.7173313,5.82666667 13.5752301,4.88590278 13.452684,4.26048611 C13.358819,4.86083333 13.1684816,5.75409722 13.0498466,6.21458333 L10.3303681,17.1527778 L8.18320552,17.1527778 L5.51196319,6.45472222 C5.39072086,5.94673611 5.14953988,4.81069444 5.05697853,4.26048611 C4.98397239,4.81069444 4.77016871,5.973125 4.67369632,6.47583333 L2.67254601,17.1527778 L0.140797546,17.1527778 L3.55122699,0.248055556 L6.03473926,0.248055556 L8.75291411,11.1638194 C8.89892638,11.7404167 9.15966258,12.9978472 9.23136503,13.4095139 C9.30306748,12.9978472 9.56380368,11.7404167 9.70981595,11.1638194 L12.3093558,0.248055556 L14.8411043,0.248055556 L18.2515337,17.1527778 Z" id="path44" fill="#000000" fill-rule="nonzero"></path>
                                </g>
                                <g id="g46" stroke-width="1" fill="none" fill-rule="evenodd" transform="translate(324.161503, 1.214417)">
                                    <path d="M13.0368098,5.27777778 C13.0368098,8.29666667 10.9835123,9.3575 7.69171779,10.3708333 C4.80406442,11.2429861 4.04141104,11.8209028 4.04141104,13.0084028 C4.04141104,14.1391667 4.87576687,15.1076389 6.83389571,15.1076389 C8.4791411,15.1076389 9.67070552,14.5745833 10.7227761,13.49 L12.4866564,15.3002778 C11.0069785,16.7490278 9.29003067,17.5934722 7.02292945,17.5934722 C3.94493865,17.5934722 1.50966258,15.8069444 1.50966258,12.8856944 C1.50966258,9.86680556 3.20575153,8.97354167 6.73742331,7.90875 C9.53121166,7.06430556 10.5089724,6.41381944 10.5089724,5.11020833 C10.5089724,3.4675 9.38519939,2.64416667 7.04769939,2.64416667 C5.47285276,2.64416667 3.82760736,3.41604167 2.70383436,4.65236111 L0.915184049,2.88694444 C2.32315951,1.22180556 4.42078221,0.157013889 6.85736196,0.157013889 C11.1269172,0.157013889 13.0368098,2.23513889 13.0368098,5.27777778" id="path48" fill="#000000" fill-rule="nonzero"></path>
                                </g>
                                <g id="g50" stroke-width="1" fill="none" fill-rule="evenodd" transform="translate(308.389310, 1.637694)">
                                    <path d="M13.0368098,0 L13.0368098,16.9047222 L10.6041411,16.9047222 L10.6041411,8.19111111 C10.6041411,7.24638889 10.6276074,4.83180556 10.6276074,4.20375 C10.3890337,4.63916667 9.67070552,5.89263889 9.24309816,6.59458333 L2.89417178,16.9047222 L0.341564417,16.9047222 L0.341564417,0 L2.77553681,0 L2.77553681,8.76506944 C2.77553681,9.70847222 2.75076687,12.0504861 2.75076687,12.6798611 C3.01541411,12.243125 3.58642638,11.2297917 3.99317485,10.6017361 L10.6510736,0 L13.0368098,0 Z" id="path52" fill="#000000" fill-rule="nonzero"></path>
                                </g>
                                <g id="g54" stroke-width="1" fill="none" fill-rule="evenodd" transform="translate(291.232738, 0.773063)">
                                    <path d="M13.0368098,7.91666667 L13.0368098,17.7702778 L10.5324387,17.7702778 L10.5324387,7.86784722 C10.5324387,4.77506944 9.29003067,3.135 6.66441718,3.135 C4.16004601,3.135 2.84723926,4.84895833 2.84723926,8.03673611 L2.84723926,17.7702778 L0.342868098,17.7702778 L0.342868098,7.96548611 C0.342868098,3.30388889 2.49003067,0.597708333 6.62009202,0.597708333 C10.7697086,0.597708333 13.0368098,3.18381944 13.0368098,7.91666667" id="path56" fill="#000000" fill-rule="nonzero"></path>
                                </g>
                                <g id="g58" stroke-width="1" fill="none" fill-rule="evenodd" transform="translate(274.985744, 1.482396)">
                                    <path d="M2.60736196,9.23611111 L2.60736196,14.6695833 L7.47661043,14.6695833 C9.17009202,14.6695833 10.3147239,13.70375 10.3147239,11.9422917 C10.3147239,10.1043056 9.14662577,9.23611111 7.47661043,9.23611111 L2.60736196,9.23611111 Z M12.8425613,12.0109028 C12.8425613,15.4902778 10.3851227,17.0590972 7.47661043,17.0590972 L0.149923313,17.0590972 L0.149923313,0.155694444 L2.60736196,0.155694444 L2.60736196,6.84527778 L6.37760736,6.84527778 L9.69547546,0.155694444 L12.5805215,0.155694444 L9.17009202,7.06166667 C11.4371933,7.63958333 12.8425613,9.30868056 12.8425613,12.0109028" id="path60" fill="#000000" fill-rule="nonzero"></path>
                                </g>
                                <g id="g62" stroke-width="1" fill="none" fill-rule="evenodd" transform="translate(258.792147, 1.316806)">
                                    <path d="M6.82208589,2.63888889 L2.35958589,2.63888889 L2.35958589,8.23993056 L6.89378834,8.23993056 C8.78021472,8.23993056 9.85184049,7.17909722 9.85184049,5.44138889 C9.85184049,3.77493056 9.04095092,2.63888889 6.82208589,2.63888889 M2.35958589,14.9057639 L6.84555215,14.9057639 C8.51556748,14.9057639 9.15958589,13.94125 9.15958589,12.6838194 C9.15958589,11.5741667 8.49210123,10.5370833 6.84555215,10.5370833 L2.35958589,10.5370833 L2.35958589,14.9057639 Z M9.5428681,9.44986111 C10.7592025,10.0541667 11.6678681,11.115 11.6678681,12.8289583 C11.6678681,15.6815972 9.78144172,17.2279861 6.87032209,17.2279861 L-0.0013803681,17.2279861 L-0.0013803681,0.320625 L6.63174847,0.320625 C10.2833589,0.320625 12.3575153,2.08604167 12.3575153,5.51263889 C12.3575153,7.85597222 10.8569785,9.08833333 9.5428681,9.44986111" id="path64" fill="#000000" fill-rule="nonzero"></path>
                                </g>
                                <g id="g66" stroke-width="1" fill="none" fill-rule="evenodd" transform="translate(232.282500, 1.390299)">
                                    <path d="M18.2515337,17.1527778 L15.818865,17.1527778 L13.7890337,6.23833333 C13.7173313,5.82666667 13.5752301,4.88590278 13.4565951,4.26048611 C13.3614264,4.86083333 13.171089,5.75409722 13.052454,6.21458333 L10.3316718,17.1527778 L8.18320552,17.1527778 L5.51196319,6.45472222 C5.39072086,5.94673611 5.15345092,4.81069444 5.05697853,4.26048611 C4.98397239,4.81069444 4.77016871,5.973125 4.67369632,6.47583333 L2.67254601,17.1527778 L0.140797546,17.1527778 L3.55513804,0.248055556 L6.03473926,0.248055556 L8.75291411,11.1638194 C8.89892638,11.7404167 9.16096626,12.9978472 9.23397239,13.4095139 C9.30306748,12.9978472 9.56771472,11.7404167 9.70981595,11.1638194 L12.3093558,0.248055556 L14.8411043,0.248055556 L18.2515337,17.1527778 Z" id="path68" fill="#000000" fill-rule="nonzero"></path>
                                </g>
                                <g id="g70" stroke-width="1" fill="none" fill-rule="evenodd" transform="translate(218.018405, 1.637694)">
                                    <polygon id="path72" fill="#000000" fill-rule="nonzero" points="11.7331288 0 11.7331288 2.46208333 3.11710123 2.46208333 3.11710123 7.79923611 7.91595092 7.79923611 7.91595092 10.2652778 3.11710123 10.2652778 3.11710123 14.4413194 11.3733129 14.4413194 11.3733129 16.9047222 0.612730061 16.9047222 0.612730061 0"></polygon>
                                </g>
                                <g id="g74" stroke-width="1" fill="none" fill-rule="evenodd" transform="translate(201.015146, 1.637694)">
                                    <path d="M13.0368098,0 L13.0368098,16.9047222 L10.6028374,16.9047222 L10.6028374,8.19111111 C10.6028374,7.24638889 10.6276074,4.83180556 10.6276074,4.20375 C10.3890337,4.63916667 9.67070552,5.89263889 9.24309816,6.59458333 L2.89417178,16.9047222 L0.341564417,16.9047222 L0.341564417,0 L2.77423313,0 L2.77423313,8.76506944 C2.77423313,9.70847222 2.75467791,12.0504861 2.75467791,12.6798611 C3.01541411,12.243125 3.58642638,11.2297917 3.99317485,10.6017361 L10.6510736,0 L13.0368098,0 Z" id="path76" fill="#000000" fill-rule="nonzero"></path>
                                </g>
                                <g id="g78" stroke-width="1" fill="none" fill-rule="evenodd" transform="translate(182.083742, 1.540451)">
                                    <polygon id="path80" fill="#000000" fill-rule="nonzero" points="11.7331288 14.5138889 11.7331288 17.0036806 0.972546012 17.0036806 0.972546012 0.0963194444 3.47952454 0.0963194444 3.47952454 7.60791667 8.27446319 7.60791667 8.27446319 10.09375 3.47952454 10.09375 3.47952454 14.5138889"></polygon>
                                </g>
                                <g id="g82" stroke-width="1" fill="none" fill-rule="evenodd" transform="translate(164.352899, 1.268514)">
                                    <path d="M7.82208589,2.63888889 C4.91096626,2.63888889 3.31265337,5.02972222 3.31265337,8.82180556 C3.31265337,12.6125694 4.91096626,15.0034028 7.82208589,15.0034028 C10.7566718,15.0034028 12.3562883,12.6125694 12.3562883,8.82180556 C12.3562883,5.02972222 10.7566718,2.63888889 7.82208589,2.63888889 M7.82208589,17.5380556 C3.5029908,17.5380556 0.760046012,13.9386111 0.760046012,8.82180556 C0.760046012,3.70104167 3.5029908,0.101597222 7.82208589,0.101597222 C12.1659509,0.101597222 14.907592,3.70104167 14.907592,8.82180556 C14.907592,13.9386111 12.1659509,17.5380556 7.82208589,17.5380556" id="path84" fill="#000000" fill-rule="nonzero"></path>
                                </g>
                                <g id="g86" stroke-width="1" fill="none" fill-rule="evenodd" transform="translate(145.121725, 1.390299)">
                                    <path d="M14.6441718,17.1527778 L11.7565184,17.1527778 L9.13351227,12.46875 C8.53642638,11.3828472 7.70467791,9.76256944 7.41656442,9.13715278 C7.12845092,9.76256944 6.26932515,11.4527778 5.69570552,12.4925 L3.09616564,17.1527778 L0.161579755,17.1527778 L6.15069018,6.93631944 L6.15069018,0.248055556 L8.65506135,0.248055556 L8.65506135,6.93631944 L14.6441718,17.1527778 Z" id="path88" fill="#000000" fill-rule="nonzero"></path>
                                </g>
                                <g id="g90" stroke-width="1" fill="none" fill-rule="evenodd" transform="translate(130.982446, 1.540451)">
                                    <polygon id="path92" fill="#000000" fill-rule="nonzero" points="13.0368098 14.5138889 13.0368098 17.0036806 0.79654908 17.0036806 0.79654908 14.5138889 5.66319018 14.5138889 5.66319018 0.0963194444 8.17016871 0.0963194444 8.17016871 14.5138889"></polygon>
                                </g>
                                <polygon id="path94" fill="#000000" fill-rule="nonzero" points="128.248236 18.5434722 125.743865 18.5434722 125.743865 1.63875 128.248236 1.63875"></polygon>
                                <g id="g96" stroke-width="1" fill="none" fill-rule="evenodd" transform="translate(108.600851, 1.214417)">
                                    <path d="M13.0368098,5.27777778 C13.0368098,8.29666667 10.9835123,9.3575 7.68911043,10.3708333 C4.80406442,11.2429861 4.04141104,11.8209028 4.04141104,13.0084028 C4.04141104,14.1391667 4.87576687,15.1076389 6.83389571,15.1076389 C8.4791411,15.1076389 9.67070552,14.5745833 10.7227761,13.49 L12.4879601,15.3002778 C11.0069785,16.7490278 9.29003067,17.5934722 7.02423313,17.5934722 C3.94624233,17.5934722 1.50966258,15.8069444 1.50966258,12.8856944 C1.50966258,9.86680556 3.20575153,8.97354167 6.73872699,7.90875 C9.52860429,7.06430556 10.5089724,6.41381944 10.5089724,5.11020833 C10.5089724,3.4675 9.38259202,2.64416667 7.04769939,2.64416667 C5.47285276,2.64416667 3.82760736,3.41604167 2.70383436,4.65236111 L0.912576687,2.88694444 C2.32055215,1.22180556 4.42078221,0.157013889 6.85736196,0.157013889 C11.1269172,0.157013889 13.0368098,2.23513889 13.0368098,5.27777778" id="path98" fill="#000000" fill-rule="nonzero"></path>
                                </g>
                                <g id="g100" stroke-width="1" fill="none" fill-rule="evenodd" transform="translate(93.498359, 1.482396)">
                                    <path d="M2.60736196,9.23611111 L2.60736196,14.6695833 L7.47269939,14.6695833 C9.17009202,14.6695833 10.3134202,13.70375 10.3134202,11.9422917 C10.3134202,10.1043056 9.14662577,9.23611111 7.47269939,9.23611111 L2.60736196,9.23611111 Z M12.8425613,12.0109028 C12.8425613,15.4902778 10.3851227,17.0590972 7.47269939,17.0590972 L0.149923313,17.0590972 L0.149923313,0.155694444 L2.60736196,0.155694444 L2.60736196,6.84527778 L6.37760736,6.84527778 L9.69547546,0.155694444 L12.5805215,0.155694444 L9.17009202,7.06166667 C11.4358896,7.63958333 12.8425613,9.30868056 12.8425613,12.0109028" id="path102" fill="#000000" fill-rule="nonzero"></path>
                                </g>
                                <g id="g104" stroke-width="1" fill="none" fill-rule="evenodd" transform="translate(78.122224, 1.637694)">
                                    <polygon id="path106" fill="#000000" fill-rule="nonzero" points="11.7331288 0 11.7331288 2.46208333 3.11840491 2.46208333 3.11840491 7.79923611 7.91334356 7.79923611 7.91334356 10.2652778 3.11840491 10.2652778 3.11840491 14.4413194 11.3746166 14.4413194 11.3746166 16.9047222 0.612730061 16.9047222 0.612730061 0"></polygon>
                                </g>
                                <g id="g108" stroke-width="1" fill="none" fill-rule="evenodd" transform="translate(60.863052, 1.390299)">
                                    <path d="M14.3404908,17.1527778 L11.6666411,17.1527778 L8.23144172,6.40590278 C7.92377301,5.41763889 7.4440184,3.89368056 7.30191718,3.29201389 C7.15981595,3.89368056 6.68136503,5.38993056 6.36978528,6.38215278 L2.88765337,17.1527778 L0.165567485,17.1527778 L5.96564417,0.248055556 L8.61211656,0.248055556 L14.3404908,17.1527778 Z" id="path110" fill="#000000" fill-rule="nonzero"></path>
                                </g>
                                <polygon id="path112" fill="#000000" fill-rule="nonzero" points="57.8559816 18.5434722 55.3490031 18.5434722 55.3490031 1.63875 57.8559816 1.63875"></polygon>
                                <g id="g114" stroke-width="1" fill="none" fill-rule="evenodd" transform="translate(37.852561, 1.637694)">
                                    <path d="M13.0368098,0 L13.0368098,16.9047222 L10.6041411,16.9047222 L10.6041411,8.19111111 C10.6041411,7.24638889 10.6276074,4.83180556 10.6276074,4.20375 C10.3903374,4.63916667 9.67070552,5.89263889 9.24309816,6.59458333 L2.89417178,16.9047222 L0.341564417,16.9047222 L0.341564417,0 L2.77553681,0 L2.77553681,8.76506944 C2.77553681,9.70847222 2.75076687,12.0504861 2.75076687,12.6798611 C3.01541411,12.243125 3.58642638,11.2297917 3.99317485,10.6017361 L10.6484663,0 L13.0368098,0 Z" id="path116" fill="#000000" fill-rule="nonzero"></path>
                                </g>
                                <g id="g118" stroke-width="1" fill="none" fill-rule="evenodd" transform="translate(20.695989, 0.773063)">
                                    <path d="M13.0368098,7.91666667 L13.0368098,17.7702778 L10.5298313,17.7702778 L10.5298313,7.86784722 C10.5298313,4.77506944 9.29003067,3.135 6.66441718,3.135 C4.16004601,3.135 2.84984663,4.84895833 2.84984663,8.03673611 L2.84984663,17.7702778 L0.342868098,17.7702778 L0.342868098,7.96548611 C0.342868098,3.30388889 2.49003067,0.597708333 6.62009202,0.597708333 C10.7697086,0.597708333 13.0368098,3.18381944 13.0368098,7.91666667" id="path120" fill="#000000" fill-rule="nonzero"></path>
                                </g>
                                <g id="g122" stroke-width="1" fill="none" fill-rule="evenodd" transform="translate(0.152845, 45.542201)">
                                    <path d="M75.6134969,104.555556 C77.3486963,101.160625 87.6451687,81.258125 73.9969325,48.3076389 C64.3509969,25.0339583 40.5118865,15.8361111 40.5118865,15.8361111 C31.5138804,13.5218056 2.39877301,1.38951389 0.984279141,0.708680556 C0.271165644,0.372222222 -0.135582822,1.23513889 0.646625767,1.70486111 C7.95115031,6.10652778 41.3592791,20.8724306 55.0101227,47.1280556 C72.3008436,80.3952083 55.8001534,114.060833 55.8001534,114.060833 C61.8883436,111.67 69.1667945,108.004583 75.4179448,105.256181 C102.70138,93.1186111 128.696779,74.8060417 121.406595,32.2064583 C118.172163,13.3106944 107.407669,0.252152778 107.407669,0.252152778 C104.840721,11.1217361 80.0786043,18.1398611 59.7581288,18.3747222 C61.6615031,18.7916667 64.7016871,19.0898611 66.2256902,19.1413194 C89.4729294,19.8564583 92.470092,17.5593056 92.470092,17.5593056 C92.470092,17.5593056 104.359663,29.4422222 104.680368,55.4577083 C105.054525,85.6307639 80.4918712,101.81375 75.6134969,104.555556" id="path124" fill="#EF3E42" fill-rule="nonzero"></path>
                                </g>
                                <g id="g126" stroke-width="1" fill="none" fill-rule="evenodd" transform="translate(88.537722, 33.861694)">
                                    <path d="M10.4294479,5.27777778 C10.4294479,7.64222222 8.94064417,9.38784722 6.00214724,9.38784722 C4.84708589,9.38784722 3.94363497,9.12659722 3.22791411,8.71756944 L3.48604294,12.0069444 L9.65766871,12.0069444 L9.65766871,13.8686806 L1.76127301,13.8686806 L1.32062883,7.50895833 L3.37653374,6.69090278 C4.03880368,7.19361111 4.77277607,7.50895833 5.85483129,7.50895833 C7.45314417,7.50895833 8.46610429,6.72784722 8.46610429,5.18805556 C8.46610429,3.53083333 7.4166411,2.54520833 5.41418712,2.54520833 C4.25912577,2.54520833 2.89808282,2.93576389 1.81472393,3.54930556 L0.878680982,1.93430556 C2.25667178,1.04104167 3.72461656,0.650486111 5.35812883,0.650486111 C8.3357362,0.650486111 10.4294479,2.09923611 10.4294479,5.27777778" id="path128" fill="#000000" fill-rule="nonzero"></path>
                                </g>
                                <g id="g130" stroke-width="1" fill="none" fill-rule="evenodd" transform="translate(76.964294, 33.658104)">
                                    <path d="M5.21472393,2.63888889 C3.23052147,2.63888889 2.11065951,3.51104167 2.11065951,4.88854167 C2.11065951,6.20798611 3.13796012,7.02604167 5.19647239,7.02604167 C7.34493865,7.02604167 8.31878834,6.16840278 8.31878834,4.79486111 C8.31878834,3.53215278 7.27062883,2.63888889 5.21472393,2.63888889 M5.19647239,12.4885417 C7.06855828,12.4885417 7.76733129,11.5596528 7.76733129,10.5766667 C7.76733129,9.62666667 6.88473926,8.86534722 5.23297546,8.86534722 C3.63466258,8.86534722 2.6595092,9.60819444 2.6595092,10.6492361 C2.6595092,11.6348611 3.32177914,12.4885417 5.19647239,12.4885417 M7.98634969,8.08423611 C9.30828221,8.62256944 9.71242331,9.86680556 9.71242331,10.6307639 C9.71242331,13.1416667 7.52875767,14.2750694 5.23297546,14.2750694 C2.71556748,14.2750694 0.713113497,13.1020833 0.713113497,10.5951389 C0.713113497,9.81270833 1.1172546,8.63972222 2.4404908,8.08423611 C0.951687117,7.52743056 0.161656442,6.40854167 0.161656442,4.85159722 C0.161656442,2.28659722 2.07415644,0.852361111 5.17952454,0.852361111 C8.2809816,0.852361111 10.265184,2.28659722 10.265184,4.85159722 C10.265184,6.52333333 9.36564417,7.56305556 7.98634969,8.08423611" id="path132" fill="#000000" fill-rule="nonzero"></path>
                                </g>
                                <g id="g134" stroke-width="1" fill="none" fill-rule="evenodd" transform="translate(66.513857, 33.881618)">
                                    <path d="M9.12576687,11.875 L9.12576687,13.8475694 L0.144708589,13.8475694 L0.144708589,11.9502083 L6.88473926,11.9502083 C4.47944785,8.80729167 2.97239264,5.31340278 2.90199387,0.833888889 L4.84708589,0.833888889 C4.93703988,5.66569444 6.93949387,9.40368056 9.12576687,11.875" id="path136" fill="#000000" fill-rule="nonzero"></path>
                                </g>
                                <g id="g138" stroke-width="1" fill="none" fill-rule="evenodd" transform="translate(59.908183, 34.715903)">
                                    <path d="M4.21472393,0 L4.21472393,13.0136806 L2.65552147,13.0136806 C2.41825153,11.8618056 1.33358896,11.4131944 0.00774539877,11.3208333 L0.00774539877,9.96444444 L2.28657975,9.96444444 L2.28657975,0 L4.21472393,0 Z" id="path140" fill="#000000" fill-rule="nonzero"></path>
                                </g>
                                <g id="g142" stroke-width="1" fill="none" fill-rule="evenodd" transform="translate(50.868980, 34.268340)">
                                    <path d="M2.91104294,1.63888889 C2.91104294,2.38701389 2.28657975,3.0375 1.54478528,3.0375 C0.801687117,3.0375 0.181134969,2.38701389 0.181134969,1.63888889 C0.181134969,0.884166667 0.801687117,0.256111111 1.54478528,0.256111111 C2.28657975,0.256111111 2.91104294,0.884166667 2.91104294,1.63888889" id="path144" fill="#000000" fill-rule="nonzero"></path>
                                </g>
                                <g id="g146" stroke-width="1" fill="none" fill-rule="evenodd" transform="translate(42.225184, 33.937694)">
                                    <polygon id="path148" fill="#000000" fill-rule="nonzero" points="9.42944785 11.875 9.42944785 13.7908333 0.00513803681 13.7908333 0.00513803681 11.875 3.75452454 11.875 3.75452454 0.777152778 5.68266871 0.777152778 5.68266871 11.875"></polygon>
                                </g>
                                <g id="g150" stroke-width="1" fill="none" fill-rule="evenodd" transform="translate(31.277523, 34.494368)">
                                    <path d="M9.42944785,3.95833333 C9.42944785,6.281875 7.8493865,7.09993056 5.31503067,7.87840278 C3.0922546,8.54868056 2.50429448,8.99729167 2.50429448,9.90506944 C2.50429448,10.7798611 3.14570552,11.5227083 4.65145706,11.5227083 C5.92124233,11.5227083 6.83903374,11.1136806 7.64601227,10.2784722 L9.00705521,11.673125 C7.86633436,12.7854167 6.5470092,13.4385417 4.80007669,13.4385417 C2.42998466,13.4385417 0.557898773,12.065 0.557898773,9.81270833 C0.557898773,7.49048611 1.86157975,6.80305556 4.58105828,5.985 C6.72822086,5.331875 7.48305215,4.833125 7.48305215,3.82506944 C7.48305215,2.56631944 6.61871166,1.93166667 4.81832822,1.93166667 C3.60590491,1.93166667 2.34133436,2.52673611 1.47569018,3.47409722 L0.0976993865,2.11770833 C1.18236196,0.833888889 2.79892638,0.0158333333 4.67231595,0.0158333333 C7.95889571,0.0158333333 9.42944785,1.61631944 9.42944785,3.95833333" id="path152" fill="#000000" fill-rule="nonzero"></path>
                                </g>
                                <g id="g154" stroke-width="1" fill="none" fill-rule="evenodd" transform="translate(20.503044, 34.715903)">
                                    <polygon id="path156" fill="#000000" fill-rule="nonzero" points="9.12576687 0 9.12576687 1.89472222 2.4952454 1.89472222 2.4952454 6.00479167 6.18857362 6.00479167 6.18857362 7.90215278 2.4952454 7.90215278 2.4952454 11.1163194 8.8493865 11.1163194 8.8493865 13.0136806 0.567101227 13.0136806 0.567101227 0"></polygon>
                                </g>
                            </g>
                        </g>
                    </g>
                </g>
            </g>
        </g>
    </g>
</svg>