<?xml version="1.0" encoding="UTF-8"?>
<svg width="24px" height="24px" viewBox="0 0 24 24" version="1.1" xmlns="http://www.w3.org/2000/svg" xmlns:xlink="http://www.w3.org/1999/xlink">
    <!-- Generator: Sketch 61.2 (89653) - https://sketch.com -->
    <title>slack-icon</title>
    <desc>Created with Sketch.</desc>
    <g id="Page-1" stroke="none" stroke-width="1" fill="none" fill-rule="evenodd">
        <g id="slack-icon" transform="translate(-1.000000, -1.000000)">
            <g id="background">
                <rect id="canvas_background" x="0" y="0" width="26" height="26"></rect>
            </g>
            <g id="Layer-1" transform="translate(2.000000, 2.000000)" fill-rule="nonzero">
                <circle id="svg_1" stroke="#FFFFFF"  cx="11" cy="11" r="11"></circle>
                <g id="svg_19" transform="translate(3.000000, 2.000000)" fill="#FFFFFF"  stroke-width="0.5">
                    <g id="svg_6" transform="translate(0.084081, 0.971425)">
                        <g id="svg_7" transform="translate(0.000000, 8.460128)">
                            <path d="M3.42287546,1.73016259 C3.42287546,2.65426883 2.66797177,3.40917252 1.74386553,3.40917252 C0.819759288,3.40917252 0.0648555981,2.65426883 0.0648555981,1.73016259 C0.0648555981,0.806056354 0.819759288,0.0511526645 1.74386553,0.0511526645 L3.42287546,0.0511526645 L3.42287546,1.73016259 Z" id="svg_8"></path>
                            <path d="M4.26888821,1.73016259 C4.26888821,0.806056354 5.0237919,0.0511526645 5.94789814,0.0511526645 C6.87200438,0.0511526645 7.62690807,0.806056354 7.62690807,1.73016259 L7.62690807,5.93419521 C7.62690807,6.85830145 6.87200438,7.61320514 5.94789814,7.61320514 C5.0237919,7.61320514 4.26888821,6.85830145 4.26888821,5.93419521 C4.26888821,5.93419521 4.26888821,1.73016259 4.26888821,1.73016259 L4.26888821,1.73016259 Z" id="svg_9"></path>
                        </g>
                        <g id="svg_10">
                            <path d="M5.94789814,3.44821927 C5.0237919,3.44821927 4.26888821,2.69331558 4.26888821,1.76920934 C4.26888821,0.845103096 5.0237919,0.090199407 5.94789814,0.090199407 C6.87200438,0.090199407 7.62690807,0.845103096 7.62690807,1.76920934 L7.62690807,3.44821927 L5.94789814,3.44821927 Z" id="svg_11"></path>
                            <path d="M5.94789814,4.29423202 C6.87200438,4.29423202 7.62690807,5.04913571 7.62690807,5.97324195 C7.62690807,6.89734819 6.87200438,7.65225188 5.94789814,7.65225188 L1.74386553,7.65225188 C0.819759288,7.65225188 0.0648555981,6.89734819 0.0648555981,5.97324195 C0.0648555981,5.04913571 0.819759288,4.29423202 1.74386553,4.29423202 C1.74386553,4.29423202 5.94789814,4.29423202 5.94789814,4.29423202 Z" id="svg_12"></path>
                        </g>
                        <g id="svg_13" transform="translate(8.460128, 0.000000)">
                            <path d="M4.22984147,5.97324195 C4.22984147,5.04913571 4.98474516,4.29423202 5.9088514,4.29423202 C6.83295764,4.29423202 7.58786133,5.04913571 7.58786133,5.97324195 C7.58786133,6.89734819 6.83295764,7.65225188 5.9088514,7.65225188 L4.22984147,7.65225188 L4.22984147,5.97324195 Z" id="svg_14"></path>
                            <path d="M3.38382872,5.97324195 C3.38382872,6.89734819 2.62892503,7.65225188 1.70481879,7.65225188 C0.780712545,7.65225188 0.0258088556,6.89734819 0.0258088556,5.97324195 L0.0258088556,1.76920934 C0.0258088556,0.845103096 0.780712545,0.090199407 1.70481879,0.090199407 C2.62892503,0.090199407 3.38382872,0.845103096 3.38382872,1.76920934 L3.38382872,5.97324195 Z" id="svg_15"></path>
                        </g>
                        <g id="svg_16" transform="translate(8.460128, 8.460128)">
                            <path d="M1.70481879,4.25518528 C2.62892503,4.25518528 3.38382872,5.01008897 3.38382872,5.93419521 C3.38382872,6.85830145 2.62892503,7.61320514 1.70481879,7.61320514 C0.780712545,7.61320514 0.0258088556,6.85830145 0.0258088556,5.93419521 L0.0258088556,4.25518528 L1.70481879,4.25518528 Z" id="svg_17"></path>
                            <path d="M1.70481879,3.40917252 C0.780712545,3.40917252 0.0258088556,2.65426883 0.0258088556,1.73016259 C0.0258088556,0.806056354 0.780712545,0.0511526645 1.70481879,0.0511526645 L5.9088514,0.0511526645 C6.83295764,0.0511526645 7.58786133,0.806056354 7.58786133,1.73016259 C7.58786133,2.65426883 6.83295764,3.40917252 5.9088514,3.40917252 L1.70481879,3.40917252 L1.70481879,3.40917252 Z" id="svg_18"></path>
                        </g>
                    </g>
                </g>
            </g>
        </g>
    </g>
</svg>