<?xml version="1.0" encoding="UTF-8"?>
<svg width="201px" height="84px" viewBox="0 0 201 84" version="1.1" xmlns="http://www.w3.org/2000/svg" xmlns:xlink="http://www.w3.org/1999/xlink">
    <!-- Generator: Sketch 61.2 (89653) - https://sketch.com -->
    <title>Group</title>
    <desc>Created with Sketch.</desc>
    <g id="Page-1" stroke="none" stroke-width="1" fill="none" fill-rule="evenodd">
        <g id="Group" fill-rule="nonzero">
            <path d="M25.5072595,49.2823467 C23.4642969,52.420646 20.6343636,53.9889214 17.0148866,53.9889214 C13.497227,53.9889214 10.686775,52.4730966 8.58316306,49.4410975 C6.48065384,46.4083989 5.42903167,42.4770454 5.42903167,37.6445891 C5.42903167,32.6967412 6.47036184,28.6919567 8.55302219,25.6309348 C10.6360501,22.5702626 13.445767,21.0390523 16.9843782,21.0390523 C20.4829241,21.0390523 23.2878626,22.4552208 25.4010314,25.284061 C27.5142002,28.1146495 28.5709683,32.0715291 28.5709683,37.153301 C28.5709683,42.1014985 27.549487,46.1443972 25.5072595,49.2823467 M17.0453951,17 C11.9093179,17 7.7844301,18.9448713 4.670364,22.832516 C1.55703305,26.7205103 0,31.6484269 0,37.6155663 C0,43.3326908 1.48645931,48.1595524 4.45901037,52.095102 C7.43119385,56.0317007 11.5759306,58 16.893588,58 C22.2924788,58 26.4930864,55.9254006 29.4965135,51.7779502 C32.4984703,47.6298005 34,42.7637758 34,37.1826734 C34,31.3697389 32.4528914,26.5523185 29.3594093,22.7307617 C26.2655596,18.9109532 22.1608882,17 17.0453951,17" id="Shape" fill="#5DA7A3"></path>
            <path d="M58.0960285,54.1595988 C56.4319945,55.9437119 54.5193073,56.8372101 52.3621555,56.8372101 C50.4982089,56.8372101 48.7108002,56.0961724 46.9938369,54.6137367 C45.276112,53.1334634 44.3310016,51.2563602 43.9502158,48.9860313 L43.9502158,40.5087909 C44.7117874,38.4467887 45.480594,36.6922306 47.0410544,35.2451167 C48.6015147,33.7980027 50.3637915,33.0742655 52.332835,33.0742655 C54.8254591,33.0742655 56.825727,34.1004009 58.3340197,36.1523111 C59.8415508,38.2042214 60.5955067,41.1236792 60.5955067,44.9110449 C60.5955067,49.2927545 59.7615858,52.376567 58.0960285,54.1595988 M53.5296449,29 C49.0950131,29 45.8541449,31.2209505 43.5694299,35.6606889 L43.5694299,29.6321888 L39,29.6321888 L39,70 L43.9502158,70 L43.9502158,55.3198129 C46.2349308,58.9078626 49.3611824,60.7027885 53.3403943,60.7027885 C57.0488675,60.7027885 60.0833498,59.2636039 62.4506953,56.3866765 C64.8168984,53.5083074 66,49.6189409 66,44.7178561 C66,40.1725126 64.8728739,36.4168645 62.5729275,33.4501908 C60.2718388,30.4831566 57.2735312,29 53.5296449,29" id="Shape" fill="#5DA7A3"></path>
            <path d="M77.4064796,41.5671859 C77.6033864,38.7430992 78.509806,36.5678464 80.1239384,34.9365833 C81.7369909,33.3049672 83.7024598,32.4651544 86.0196254,32.4651544 C87.7421105,32.4651544 89.2165722,32.9042999 90.4451703,33.8080077 C91.6726885,34.7103034 92.5445504,35.8452332 93.0589561,37.1270156 C93.5748017,38.4084449 93.8505433,39.8021317 93.8905006,41.5671859 L77.4064796,41.5671859 Z M95.3318445,33.0447982 C92.9452037,30.3841555 89.7921739,29 85.8709553,29 C81.8914206,29 78.5836011,30.4155735 75.9507366,33.3024961 C73.3171522,36.1880067 72,39.9602806 72,44.6450875 C72,49.2324633 73.2663956,52.9316639 75.8017066,55.7599868 C78.3362976,58.5897217 81.6534764,60 85.7528831,60 C88.8616359,60 91.5636158,59.1753667 93.8606226,57.5278651 C96.1583494,55.8810695 97.7026465,53.8011296 98.4949537,51.2866334 L94.1590427,50.4136376 C92.5938671,54.2769882 89.9008866,56.2097226 86.0790214,56.2097226 C83.9602027,56.2097226 81.9504566,55.5418261 80.0497833,53.9885784 C78.1487501,52.4346247 77.1976935,49.3334244 77.1976935,45.0972943 L99,45.0972943 C98.940604,39.4491209 97.7177655,35.7047349 95.3318445,33.0447982 L95.3318445,33.0447982 Z" id="Shape" fill="#5DA7A3"></path>
            <path d="M123.4024,30.7449355 C121.6532,29.5820067 119.4756,29 116.9888,29 C112.676,29 109.2,31.1281201 106.4,35.3832757 L106.4,29.6344234 L102,29.6344234 L102,60 L106.8,60 L106.8,43.4366575 C106.8,40.3158727 107.7384,37.7995072 109.5316,35.88973 C111.3236,33.9810373 113.5624,33.0266909 116.2024,33.0266909 C118.1172,33.0266909 119.7952,33.5935148 121.1372,34.7271626 C122.4796,35.8600874 123.2,37.8190279 123.2,40.6036226 L123.2,60 L128,60 L128,42.5419578 C128,38.7440931 127.6624,36.1196407 127.0124,34.6675159 C126.3632,33.2153912 125.152,31.9078644 123.4024,30.7449355 Z" id="Shape" fill="#5DA7A3"></path>
            <path d="M147.297872,49.6058796 C147.297872,51.8583934 147.122809,53.4865275 146.782085,54.4928377 C146.440277,55.4980526 145.770404,56.3166838 144.775,56.9505571 C143.780319,57.5837 142.126255,57.8991761 140.026574,57.8991761 C138.550468,57.8991761 137.170213,57.7038292 135,57.3127703 L135,61.2189776 C137.170213,61.7389289 138.780872,62 140.60566,62 C144.013617,62 146.795468,61.0875293 148.85934,59.2644134 C150.922489,57.4402022 152,54.2200824 152,49.6029585 L152,23 L147.297872,23 L147.297872,49.6058796 Z" id="Shape" fill="#000000"></path>
            <path d="M176.276287,41.8098505 C174.577287,43.6146911 172.473613,44.5172909 169.966313,44.5172909 C167.688758,44.5172909 165.692974,43.7386055 163.976516,42.1815938 C162.260407,40.6235046 161.402178,38.5072617 161.402178,35.8310693 C161.402178,33.3402098 162.17626,31.2264811 163.723726,29.4956301 C165.269795,27.7637015 167.377659,26.8980964 170.045921,26.8980964 C172.678219,26.8980964 174.7997,27.7403553 176.408967,29.426669 C178.018932,31.1126235 178.82374,33.1290165 178.82374,35.4736929 C178.82374,37.892718 177.973891,40.00501 176.276287,41.8098505 M180.344321,27.9576545 C177.908249,24.6539882 174.404105,23 169.832236,23 C166.097648,23 163.024713,24.2642863 160.615177,26.7917814 C158.204244,29.3199948 157,32.3603879 157,35.9140381 C157,39.412735 158.146284,42.3478906 160.440947,44.7198641 C162.735959,47.0914784 165.572515,48.2778243 168.951312,48.2778243 C173.736166,48.2778243 177.320617,46.0268919 179.704315,41.5257453 C179.650545,46.667296 178.747624,50.7388726 176.996599,53.7393975 C175.244177,56.7406408 172.634225,58.2398258 169.164996,58.2398258 C165.59102,58.2398258 163.047059,56.5114889 161.534858,53.0530193 L157.879877,54.4257757 C159.800243,59.4753783 163.544259,62 169.112623,62 C173.878273,62 177.552109,60.1190149 180.130986,56.3566857 C182.709863,52.5939972 184,47.6729783 184,41.5936288 C184,35.8080823 182.78144,31.2627575 180.344321,27.9576545" id="Shape" fill="#060606"></path>
            <path d="M124.330293,62.7320036 C126.110366,65.9413981 128.336178,68.9617675 131.00773,71.6984425 C147.019412,88.1005192 172.979478,88.1005192 188.99116,71.6984425 C205.002947,55.2964371 205.002947,28.7035683 188.99116,12.3015628 C172.979478,-4.10052095 147.019412,-4.10052095 131.00773,12.3015628 C126.269933,17.1548288 122.934018,22.9003468 121,29.0100947 L123.1264,29.9799044 C124.939565,24.1265807 128.111969,18.6193922 132.643604,13.9773173 C147.751827,-1.49927092 172.24708,-1.49927092 187.355286,13.9773173 C202.463597,29.45382 202.463597,54.5461783 187.355286,70.0226916 C172.24708,85.4992549 147.751827,85.4992549 132.643604,70.0226916 C130.178562,67.4975603 128.115725,64.7164678 126.455058,61.7629276 L124.330293,62.7320036 Z" id="Shape" fill="#5DA7A3"></path>
        </g>
    </g>
</svg>