<?xml version="1.0" encoding="UTF-8"?>
<svg width="417px" height="222px" viewBox="0 0 417 222" version="1.1" xmlns="http://www.w3.org/2000/svg" xmlns:xlink="http://www.w3.org/1999/xlink">
    <!-- Generator: Sketch 61.2 (89653) - https://sketch.com -->
    <title>Group</title>
    <desc>Created with Sketch.</desc>
    <g id="Page-1" stroke="none" stroke-width="1" fill="none" fill-rule="evenodd">
        <g id="Group" fill-rule="nonzero">
            <path d="M53.2651595,130.036425 C48.9989729,138.303165 43.0894063,142.434232 35.5310867,142.434232 C28.1853858,142.434232 22.3165007,138.441328 17.923664,130.454598 C13.5331301,122.466026 11.3370955,112.110266 11.3370955,99.3808688 C11.3370955,86.3475134 13.511638,75.798325 17.8607228,67.7351453 C22.2105752,59.6728868 28.0779252,55.6394548 35.467378,55.6394548 C42.773165,55.6394548 48.6305366,59.3698499 53.0433303,66.821429 C57.4561239,74.2776133 59.6629044,84.7006132 59.6629044,98.0867441 C59.6629044,111.12102 57.5298111,121.770607 53.2651595,130.036425 M35.5947957,45 C24.869458,45 16.2557217,50.1230756 9.75281894,60.3637007 C3.25145137,70.6052466 0,83.5861001 0,99.3044185 C0,114.364161 3.10407679,127.078821 9.31146283,137.445635 C15.5180813,147.815212 24.1732668,153 35.2777867,153 C46.551941,153 55.3237981,147.535202 61.5956605,136.61021 C67.8644527,125.683377 71,112.865556 71,98.1641153 C71,82.8519952 67.7692732,70.1622048 61.3093547,60.095665 C54.8486686,50.0337304 46.2771489,45 35.5947957,45" id="Shape" fill="#5DA7A3"></path>
            <path d="M120.606578,143.274065 C117.155248,147.97368 113.188193,150.327285 108.7141,150.327285 C104.848137,150.327285 101.140919,148.375283 97.5798099,144.470331 C94.0171212,140.571074 92.0568922,135.62651 91.2671143,129.646131 L91.2671143,107.315839 C92.8466702,101.884224 94.441232,97.2624611 97.6777425,93.4505513 C100.914253,89.6386413 104.569345,87.7322116 108.653287,87.7322116 C113.823174,87.7322116 117.971878,90.4352024 121.100189,95.8402341 C124.22692,101.245266 125.790681,108.935545 125.790681,118.912021 C125.790681,130.454085 124.061067,138.577298 120.606578,143.274065 M111.13556,77 C101.937805,77 95.2160042,82.8503086 90.4773361,94.5452293 L90.4773361,78.6652778 L81,78.6652778 L81,185 L91.2671143,185 L91.2671143,146.330239 C96.0057824,155.781687 102.48986,160.509784 110.74304,160.509784 C118.434688,160.509784 124.728429,156.718761 129.638479,149.140514 C134.54616,141.558468 137,131.313308 137,118.403133 C137,106.430033 134.662257,96.5371065 129.891998,88.7224538 C125.119369,80.9068515 118.900657,77 111.13556,77" id="Shape" fill="#5DA7A3"></path>
            <path d="M160.213439,110.242234 C160.621838,102.772069 162.50182,97.0181743 165.84965,92.7032203 C169.19524,88.3873326 173.271768,86.1658923 178.077742,86.1658923 C181.650303,86.1658923 184.708446,87.327503 187.25665,89.7179559 C189.802613,92.1046735 191.610919,95.1067459 192.677835,98.4972671 C193.747737,101.886854 194.319645,105.573381 194.40252,110.242234 L160.213439,110.242234 Z M197.391974,87.6991436 C192.441904,80.6613145 185.902287,77 177.769389,77 C169.515539,77 162.654876,80.7444202 157.19412,88.3807961 C151.731871,96.0134371 149,105.99171 149,118.38378 C149,130.518129 151.626598,140.303111 156.885021,147.784481 C162.141951,155.269586 169.022025,159 177.524498,159 C183.972282,159 189.576388,156.818712 194.340551,152.460804 C199.106206,148.104764 202.309193,142.602988 203.952497,135.95174 L194.959496,133.642525 C191.713206,143.861711 186.127765,148.974105 178.200933,148.974105 C173.806346,148.974105 169.637984,147.207411 165.695847,143.09882 C161.752963,138.988362 159.780401,130.785187 159.780401,119.57994 L205,119.57994 C204.876808,104.63961 202.340551,94.7351052 197.391974,87.6991436 L197.391974,87.6991436 Z" id="Shape" fill="#5DA7A3"></path>
            <path d="M256.451138,81.6156358 C252.818185,78.5395016 248.295477,77 243.130585,77 C234.173231,77 226.953846,82.6292209 221.138462,93.8847938 L221.138462,78.6781522 L212,78.6781522 L212,159 L221.969231,159 L221.969231,115.187288 C221.969231,106.932308 223.918215,100.276116 227.642554,95.2244471 C231.3644,90.1756471 236.014215,87.6512469 241.497292,87.6512469 C245.474185,87.6512469 248.959262,89.1505875 251.746492,92.1492688 C254.534554,95.1460376 256.030769,100.327751 256.030769,107.693453 L256.030769,159 L266,159 L266,112.820663 C266,102.774698 265.298831,95.832598 263.948831,91.9914937 C262.600492,88.1503896 260.084923,84.6917703 256.451138,81.6156358 Z" id="Shape" fill="#5DA7A3"></path>
            <path d="M305.319148,131.26681 C305.319148,137.215757 304.958724,141.515701 304.257234,144.173392 C303.553511,146.82819 302.174361,148.990216 300.125,150.664292 C298.077127,152.336438 294.671701,153.169619 290.348829,153.169619 C287.309787,153.169619 284.468086,152.653703 280,151.620906 L280,161.9373 C284.468086,163.310505 287.784148,164 291.541065,164 C298.557447,164 304.284787,161.590141 308.533935,156.775246 C312.781595,151.957457 315,143.453038 315,131.259096 L315,61 L305.319148,61 L305.319148,131.26681 Z" id="Shape" fill="#000000"></path>
            <path d="M365.980447,110.677297 C362.456595,115.443928 358.09342,117.827717 352.893094,117.827717 C348.169276,117.827717 344.029872,115.771189 340.469811,111.659081 C336.910474,107.544128 335.130443,101.955076 335.130443,94.887183 C335.130443,88.3087592 336.735947,82.7263475 339.945506,78.1551256 C343.152167,73.5810578 347.524033,71.2949725 353.058207,71.2949725 C358.517788,71.2949725 362.917896,73.5193999 366.255635,77.9729976 C369.594822,82.4256467 371.264053,87.7509923 371.264053,93.9433428 C371.264053,100.33205 369.501404,105.910667 365.980447,110.677297 M374.417851,74.0932927 C369.365257,65.3682252 362.097403,61 352.615008,61 C344.869196,61 338.495701,64.3390125 333.498145,71.0141919 C328.497691,77.6912683 326,85.7210245 326,95.1063058 C326,104.346454 328.377478,112.098275 333.136779,118.362718 C337.896804,124.626212 343.780031,127.759382 350.787906,127.759382 C360.712048,127.759382 368.146465,121.814612 373.090431,109.926968 C372.978908,123.505936 371.106183,134.259074 367.474428,142.183537 C363.839775,150.109897 358.426541,154.069284 351.231103,154.069284 C343.818412,154.069284 338.542048,149.504701 335.405631,140.370795 L327.82493,143.996279 C331.807911,157.332409 339.573278,164 351.122477,164 C361.006788,164 368.626596,159.03227 373.975378,149.095862 C379.32416,139.158505 382,126.161968 382,110.10625 C382,94.8264738 379.472616,82.8221544 374.417851,74.0932927" id="Shape" fill="#060606"></path>
            <path d="M257.910358,165.791724 C261.604009,174.273695 266.222569,182.2561 271.76604,189.488741 C304.99028,232.837086 358.857417,232.837086 392.081657,189.488741 C425.306114,146.140584 425.306114,75.8594305 392.081657,32.5112731 C358.857417,-10.837091 304.99028,-10.837091 271.76604,32.5112731 C261.935111,45.3377618 255.013087,60.5223451 251,76.669536 L255.41228,79.2326045 C259.174597,63.7631061 265.757336,49.2083937 275.160478,36.9400529 C306.510041,-3.96235883 357.337691,-3.96235883 388.687218,36.9400529 C420.036963,77.8422386 420.036963,144.157757 388.687218,185.059971 C357.337691,225.962316 306.510041,225.962316 275.160478,185.059971 C270.045516,178.386409 265.765129,171.036379 262.319245,163.230594 L257.910358,165.791724 Z" id="Shape" fill="#5DA7A3"></path>
        </g>
    </g>
</svg>